<?xml version="1.0" standalone="no"?>
<!DOCTYPE svg PUBLIC "-//W3C//DTD SVG 1.1//EN" "http://www.w3.org/Graphics/SVG/1.1/DTD/svg11.dtd" >
<svg xmlns="http://www.w3.org/2000/svg">
<metadata></metadata>
<defs>
<font id="didot_displayregular" horiz-adv-x="432" >
<font-face units-per-em="1000" ascent="800" descent="-200" />
<missing-glyph horiz-adv-x="200" />
<glyph unicode="ft" horiz-adv-x="476" d="M465 30q-9 -12 -31 -25t-46 -13q-50 0 -69 23t-19 73l1 273h-149q-17 0 -22 -6.5t-5 -24.5v-320h76v-10h-187v10h27q17 0 20.5 3.5t3.5 20.5v420q0 112 62 176t138 64q31 0 57 -12t26 -40q0 -13 -9 -23.5t-22 -10.5q-12 0 -21.5 9t-9.5 21q0 16 15 28q-13 20 -43 20 q-133 0 -133 -195v-120h176l1 86l60 25v-111h94v-10h-73q-21 0 -21 -24l-2 -251q0 -43 8 -61.5t36 -19.5q24 -1 55 30z" />
<glyph unicode="fh" horiz-adv-x="676" d="M300 34v596q0 23 -11.5 37.5t-32.5 14.5q-131 0 -131 -191v-120h85v-10h-58q-17 0 -22 -6.5t-5 -24.5v-320h56v-10h-167v10h27q16 0 20 4.5t4 19.5v420q0 74 30.5 132.5t93.5 89.5q30 15 76 15q62 0 95 -15v-366q27 29 71.5 51.5t82.5 22.5q98 0 98 -138v-236h45v-10 h-155v10h25q15 0 20 6.5t5 24.5v197q0 28 -2 46t-10 36.5t-25.5 27.5t-45.5 9q-22 0 -42.5 -9t-33 -18.5t-33.5 -29.5v-290h44v-10h-152v10h21q17 0 22 4t5 20z" />
<glyph unicode="fj" horiz-adv-x="420" d="M348 642q0 -13 -9 -23.5t-22 -10.5q-12 0 -21.5 9t-9.5 21q0 16 15 28q-13 20 -43 20q-133 0 -133 -195v-120h85v-10h-58q-17 0 -22 -6.5t-5 -24.5v-320h76v-10h-187v10h27q17 0 20.5 3.5t3.5 20.5v420q0 112 62 176t138 64q31 0 57 -12t26 -40zM360 -30q0 -156 -41 -220 q-10 -16 -31 -31t-41 -15q-32 0 -55.5 17.5t-23.5 40.5q0 17 10 27.5t22 10.5q30 0 30 -30q0 -21 -28 -32q5 -10 6.5 -12.5t12.5 -8.5t26 -6q25 0 40.5 25.5t16.5 56.5q0 6 -2 58.5t-2 74.5v392v8.5v9t-0.5 7.5t-1.5 7.5t-3.5 5.5t-6 4t-8.5 1h-33v10h113v-401z" />
<glyph unicode="fb" horiz-adv-x="677" d="M655 194q0 -85 -62 -145.5t-128 -60.5q-36 0 -87 19q-29 11 -34 11q-16 0 -33 -18h-11v621q0 61 -50 61q-125 0 -125 -191v-120h85v-10q-66 -1 -74 -5q-11 -5 -11 -26v-320h61v-10h-172v10h15q24 0 30 3.5t6 20.5v420q0 109 55.5 173t144.5 64q65 0 95 -15v-346 q68 53 139 53q65 -1 110.5 -48.5t45.5 -140.5zM591 174q0 89 -33.5 138t-99.5 49q-44 0 -98 -41v-254q0 -31 28.5 -49.5t76.5 -18.5q60 0 93 44.5t33 131.5z" />
<glyph unicode="ff" horiz-adv-x="471" d="M583 642q0 -13 -9 -23.5t-23 -10.5q-12 0 -21 9t-9 20q0 17 15 29q-13 20 -43 20q-133 0 -133 -195v-120h85v-10h-58q-16 0 -21.5 -6t-5.5 -25v-320h56v-10h-167v10h27q17 0 20.5 4t3.5 20v420q0 97 44 154q-31 39 -85 39q-134 0 -134 -176v-100h85v-10q-66 -1 -74 -5 q-11 -5 -11 -26v-320h61v-10h-172v10h33q11 0 14.5 4t3.5 20v380q0 57 22 110.5t68 91.5t104 38q61 0 92 -37q28 37 68.5 57t79.5 20q30 0 57 -11.5t27 -40.5z" />
<glyph unicode="ffi" horiz-adv-x="662" d="M583 642q0 -13 -9 -23.5t-22 -10.5q-12 0 -21.5 9t-9.5 21q0 16 15 28q-13 20 -43 20q-133 0 -133 -195v-120h85v-10h-58q-17 0 -22 -6.5t-5 -24.5v-320h76v-10h-187v10h27q17 0 20.5 3.5t3.5 20.5v420q0 90 44 154q-32 39 -86 39q-74 0 -103.5 -51t-29.5 -143v-82h85 v-10h-58q-17 0 -22 -6.5t-5 -24.5v-320h54v-10h-165v10h27q17 0 20.5 3.5t3.5 20.5v380q0 67 31 130t91 93q34 17 72 17q56 0 92 -36q29 36 69 56t80 20q31 0 57 -12t26 -40zM640 0h-152v10h25q14 0 18.5 5t4.5 23v279q0 17 -0.5 24t-6.5 13.5t-19 6.5h-22v10h108v-361h44 v-10z" />
<glyph unicode="ffl" horiz-adv-x="659" d="M648 0h-171v10h25q18 0 25.5 4.5t7.5 19.5v594q0 23 -10.5 39t-32.5 16q-132 0 -132 -192v-120h85v-10q-66 -1 -74 -5q-11 -5 -11 -26v-320h61v-10h-179v10h35q15 0 19 4t4 20v420q0 90 43 150q-35 43 -84 43q-134 0 -134 -176v-100h85v-10q-66 -1 -74 -5q-11 -5 -11 -26 v-320h61v-10h-172v10h26q13 0 19 4.5t6 19.5v380q0 57 22 110.5t68 91.5t104 38q61 0 93 -38q61 75 148 75q62 0 95 -15v-666h53v-10z" />
<glyph unicode="&#xfb01;" horiz-adv-x="427" d="M348 642q0 -13 -9 -23.5t-22 -10.5q-12 0 -21.5 9t-9.5 21q0 16 15 28q-13 20 -43 20q-133 0 -133 -195v-120h85v-10h-58q-17 0 -22 -6.5t-5 -24.5v-320h76v-10h-187v10h27q17 0 20.5 3.5t3.5 20.5v420q0 112 62 176t138 64q31 0 57 -12t26 -40zM405 0h-152v10h25 q14 0 18.5 5t4.5 23v279q0 17 -0.5 24t-6.5 13.5t-19 6.5h-22v10h108v-361h44v-10z" />
<glyph unicode="&#xfb02;" horiz-adv-x="424" d="M413 0h-171v10h25q18 0 25.5 4.5t7.5 19.5v594q0 54 -50 54q-125 0 -125 -191v-120h85v-10q-66 -1 -74 -5q-11 -5 -11 -26v-320h61v-10h-172v10h26q14 0 19.5 4.5t5.5 19.5v420q0 113 74 187q50 50 126 50q67 0 95 -15v-666h53v-10z" />
<glyph horiz-adv-x="1000" />
<glyph horiz-adv-x="1000" />
<glyph unicode="&#xd;" horiz-adv-x="1000" />
<glyph unicode=" "  horiz-adv-x="200" />
<glyph unicode="&#x09;" horiz-adv-x="200" />
<glyph unicode="&#xa0;" horiz-adv-x="200" />
<glyph unicode="!" horiz-adv-x="294" d="M214 610q-8 0 -14.5 -2.5t-10 -8t-6 -11t-3.5 -16t-1 -17t-0.5 -20.5t-0.5 -21l-13 -397h-33l-13 397q0 6 -0.5 16.5t-0.5 16t-1 14.5t-2 14t-2.5 11.5t-4.5 10t-7 7t-9 5t-12 1.5v9h134v-9zM188 26q0 -16 -11 -27t-27 -11t-27 11t-11 27t11 27t27 11t27 -11t11 -27z" />
<glyph unicode="&#x22;" horiz-adv-x="337" d="M277 554q-4 0 -7 -1t-5 -4t-3 -6t-1.5 -8t-1 -8.5t-0.5 -10v-10.5l-6 -179h-27l-6 179v8t-0.5 8t-0.5 7.5t-0.5 6.5t-1.5 5.5t-2.5 5l-3.5 3.5t-5 3t-6 1v10h77v-10zM137 554q-4 0 -7 -1t-5 -4t-3 -6t-1.5 -8t-1 -8.5t-0.5 -10v-10.5l-6 -179h-27l-6 179v10t-0.5 10.5 t-1 8.5t-1.5 7.5t-3.5 5.5t-5.5 4.5t-8 1.5v10h77v-10z" />
<glyph unicode="#" horiz-adv-x="1059" d="M1036 386q0 -76 -57.5 -136.5t-144.5 -60.5q-77 0 -130.5 55.5t-53.5 138.5q0 78 58.5 139.5t132.5 61.5q93 0 144 -58t51 -140zM971 388q0 82 -37 134.5t-94 52.5q-60 0 -92 -57t-32 -130q0 -83 38 -136.5t84 -53.5q38 0 65.5 17t41.5 46t20 60t6 67zM632 658h-67v-673 h-3l-448 660v-635h88v-10h-172v10h15q18 0 27 1.5t18 5.5t12 13t3 25v544q0 39 -14.5 49t-51.5 10h-15v10h161l370 -545v506q0 18 -8 23.5t-44 5.5h-23v10h152v-10zM940 75h-194v20h194v-20z" />
<glyph unicode="$" horiz-adv-x="462" d="M402 156q0 -69 -42.5 -116t-107.5 -52v-114h-11v114h-2q-42 0 -95 11.5t-84 25.5v101h10q23 -131 171 -128v260q-5 3 -29 18t-29.5 18.5t-24.5 17t-24 20.5t-17.5 20.5t-16 25t-7.5 27.5t-4 33q0 66 40.5 107.5t111.5 45.5v109h11v-109q64 0 135 -32v-95h-10 q-20 116 -124 115h-1v-247l14 -9q2 -1 22 -14t23 -15.5t19.5 -14t20.5 -16t16 -16t15.5 -19.5t9.5 -20.5t8 -25t2 -26.5zM241 339v240q-60 -5 -83.5 -38t-23.5 -76q0 -37 22 -61t85 -65zM360 122q-2 39 -28 66.5t-80 62.5v-252q57 4 84 38.5t24 84.5z" />
<glyph unicode="%" horiz-adv-x="525" d="M475 104q0 -48 -30 -79t-69 -31q-40 0 -68.5 30t-28.5 78q0 47 29.5 75.5t75.5 28.5q38 0 64.5 -27t26.5 -75zM246 325q0 -48 -30 -79t-69 -31q-40 0 -68.5 30.5t-28.5 78.5q0 47 29.5 75t75.5 28q38 0 64.5 -27t26.5 -75zM447 425l-360 -425h-21l362 425h19zM208 325 q0 38 -13.5 66t-41.5 28q-30 0 -46 -26.5t-16 -67.5q0 -45 15 -73t44 -28t43.5 31t14.5 70zM436 103q0 39 -13 67t-42 28q-30 0 -46 -27t-16 -68q0 -45 15 -73t45 -28q28 0 42.5 31t14.5 70z" />
<glyph unicode="&#x26;" horiz-adv-x="581" d="M576 341q0 -15 -10 -25.5t-22 -10.5q-16 0 -25 9.5t-9 21.5q0 7 6.5 13.5t14.5 9.5q0 3 -3.5 6.5t-8.5 3.5q-57 0 -103 -108l-47 -117q19 -21 38 -42.5t29.5 -34t21 -24.5t16 -17.5t11.5 -10t9.5 -6t8.5 -1.5q40 0 66 54l6 -5q-32 -61 -78 -61q-38 0 -69 18.5t-85 80.5 q-28 -53 -64 -80.5t-101 -27.5q-63 0 -105.5 43.5t-42.5 106.5q0 31 9 55t32.5 45t37.5 30t51 31l-12.5 12.5t-12.5 13t-11.5 12.5t-12 14t-10.5 14t-10 15l-7.5 15t-6.5 16.5t-3.5 17t-1.5 18.5q0 60 40.5 97t100.5 37q54 0 89.5 -28.5t35.5 -84.5q0 -36 -19.5 -66t-38 -44 t-54.5 -36q-5 -3 -8 -5l145 -166q6 13 19 49t25 63.5t29.5 58.5t40.5 48t50 17q24 0 36.5 -13t12.5 -32zM288 458q0 45 -19 79.5t-58 34.5q-36 0 -61 -30.5t-25 -67.5q0 -63 88 -151q75 48 75 135zM339 101l-174 190q-74 -36 -74 -121q0 -56 37.5 -105t89.5 -49q69 0 121 85 z" />
<glyph unicode="'" horiz-adv-x="197" d="M137 554q-4 0 -7 -1t-5 -4t-3 -6t-1.5 -8t-1 -8.5t-0.5 -10v-10.5l-6 -178l-27 -1l-6 179v6q-1 36 -13 41q-3 1 -7 1v10h77v-10z" />
<glyph unicode="(" horiz-adv-x="256" d="M212 656q-26 -36 -42 -64t-39.5 -80t-35.5 -119t-12 -146q0 -185 89 -395l-5 -8q-115 220 -115 431q0 221 154 387z" />
<glyph unicode=")" horiz-adv-x="256" d="M89 656q115 -221 115 -429q0 -221 -154 -389l-6 6q26 36 42 64t39.5 80t35.5 119t12 146q0 185 -89 395z" />
<glyph unicode="*" horiz-adv-x="350" d="M69 628l78 -92l-5 -6l-96 71l8 19zM316 528l6 -20l-7 -15l-118 20v8zM184 494l58 -99l-14 -15l-17 -2l-34 113zM144 503l5 -6l-87 -82l-17 11l-5 16zM241 648l-56 -107l-7 3l30 115h20z" />
<glyph unicode="+" horiz-adv-x="365" d="M330 269h-123v-248h-50v248h-122v50h122v185h50v-185h123v-50z" />
<glyph unicode="," horiz-adv-x="186" d="M144 0q0 -30 -22 -68t-52 -68l-5 6q55 64 55 117q0 13 -6 19q-7 -19 -32 -19q-13 0 -24 11t-11 28q0 18 12 30t32 12q24 0 38.5 -17t14.5 -51z" />
<glyph unicode="-" horiz-adv-x="274" d="M234 180h-194v36h194v-36z" />
<glyph unicode="." horiz-adv-x="176" d="M126 26q0 -16 -11 -27t-27 -11t-27 11t-11 27t11 27t27 11t27 -11t11 -27z" />
<glyph unicode="/" horiz-adv-x="306" d="M286 694l-226 -808h-35l225 808h36z" />
<glyph unicode="0" horiz-adv-x="449" d="M419 317q0 -52 -10 -105t-31 -105.5t-61.5 -85t-94.5 -32.5q-49 0 -88 33t-60.5 83.5t-32.5 102t-11 96.5q0 55 12 107.5t35.5 99t64.5 75t93 28.5q67 0 125.5 -82t58.5 -215zM355 293q0 156 -37.5 234t-88.5 78q-48 0 -80 -47.5t-43.5 -108.5t-11.5 -130q0 -41 5 -87 t17.5 -103t41 -94t68.5 -37q57 0 93 84t36 211z" />
<glyph unicode="1" horiz-adv-x="299" d="M259 0h-186v10h21q29 1 37 7t8 33v528l-121 -46v12l155 60h26v-594h60v-10z" />
<glyph unicode="2" horiz-adv-x="389" d="M349 113l-30 -113h-319q11 22 21 35q21 27 68 64q72 56 128 145.5t57 177.5q0 84 -33.5 127.5t-81.5 43.5q-39 0 -74 -26.5t-46 -55.5l-10 5q3 24 47.5 61.5t100.5 37.5q67 0 115 -53t48 -133q0 -39 -15 -79t-33.5 -69t-56 -68t-59 -58.5t-68.5 -59t-60 -50.5h202 q45 0 58.5 11.5t28.5 56.5h12z" />
<glyph unicode="3" horiz-adv-x="374" d="M335 173v-6q-2 -67 -62 -123t-138 -56q-37 0 -68.5 9.5t-42.5 20.5q-9 9 -9 23q0 12 9 21t21 9q10 0 19 -8t9 -20q0 -13 -11 -20q12 -12 37.5 -18.5t45.5 -6.5q44 0 85 40t41 108q0 71 -33.5 119t-92.5 51l-37 1l1 7q139 51 139 175q0 31 -20.5 58.5t-56.5 28.5 q-31 0 -63.5 -16.5t-49.5 -37.5l-9 7q27 32 69 54t79 22q44 0 75.5 -33.5t31.5 -80.5q0 -46 -35.5 -86t-82.5 -66l-34 -19q80 0 131.5 -39.5t51.5 -117.5z" />
<glyph unicode="4" horiz-adv-x="380" d="M316 0h-59v233h-254l303 385h10v-618zM257 278v261l-205 -261h205z" />
<glyph unicode="5" horiz-adv-x="377" d="M185 371q68 0 115 -51.5t47 -120.5q0 -95 -57 -152.5t-145 -57.5q-73 0 -115 46l8 9q40 -46 96 -46q53 0 87 32.5t46.5 78t12.5 102.5q0 55 -27.5 101.5t-79.5 46.5q-70 0 -103 -65h-15l69 324q46 -22 102 -22q62 0 104 28v-50q-44 -26 -102 -26q-48 0 -105 19l-53 -254 q43 58 115 58z" />
<glyph unicode="6" horiz-adv-x="412" d="M382 184q0 -91 -43.5 -143.5t-119.5 -52.5q-75 0 -127 55t-52 163q0 137 96 275.5t221 176.5q0 -2 0.5 -5t0.5 -4q-63 -21 -111.5 -66.5t-76 -102.5t-42 -110.5t-18.5 -104.5q19 36 52 57.5t68 21.5q63 0 107.5 -44t44.5 -116zM316 169v14q0 151 -89 151q-53 0 -87 -43.5 t-34 -93.5q0 -93 27 -146.5t81 -53.5q29 0 50 17t31.5 44.5t15.5 54.5t5 56z" />
<glyph unicode="7" horiz-adv-x="367" d="M375 604l-51 -108q-51 -107 -120 -275t-100 -288l-19 6q128 395 243 610h-226q-20 0 -34 -14.5t-18 -29.5l-5 -15h-12l10 114h332z" />
<glyph unicode="8" horiz-adv-x="404" d="M374 150q0 -69 -47.5 -115.5t-125.5 -46.5q-70 0 -120.5 36t-50.5 103q0 34 8 59t28.5 44t35.5 29t47 27l13 7l-5 3q-103 70 -103 165q0 56 40.5 104.5t118.5 48.5q64 0 106.5 -37.5t42.5 -92.5q0 -63 -34 -98.5t-99 -65.5q63 -35 104 -75.5t41 -94.5zM310 481 q0 46 -22 85t-76 39q-32 0 -54.5 -14t-33.5 -37t-15 -44.5t-4 -45.5q0 -81 114 -139q49 28 70 72t21 84zM320 129q0 46 -40 82.5t-111 75.5q-43 -24 -63.5 -54.5t-20.5 -90.5q0 -58 33.5 -101t88.5 -43q59 0 86 39.5t27 91.5z" />
<glyph unicode="9" horiz-adv-x="411" d="M371 401q0 -90 -46.5 -187t-124 -170.5t-162.5 -95.5v9q63 19 113.5 63t79.5 100.5t45.5 110t22.5 104.5q-20 -35 -50.5 -55.5t-61.5 -20.5q-65 0 -111 43.5t-46 120.5q0 86 46 138.5t120 52.5t124.5 -55t50.5 -158zM306 413q0 192 -109 192q-50 0 -75 -54.5t-25 -113.5 q0 -169 96 -169q52 0 82.5 45.5t30.5 99.5z" />
<glyph unicode=":" horiz-adv-x="246" d="M161 306q0 -16 -11 -27t-27 -11t-27 11t-11 27t11 27t27 11t27 -11t11 -27zM161 26q0 -16 -11 -27t-27 -11t-27 11t-11 27t11 27t27 11t27 -11t11 -27z" />
<glyph unicode=";" horiz-adv-x="249" d="M163 313q0 -16 -11 -27t-27 -11t-27 11t-11 27t11 27t27 11t27 -11t11 -27zM173 0q0 -30 -22 -68t-52 -68l-5 6q55 64 55 117q0 13 -6 19q-7 -19 -32 -19q-13 0 -24 11t-11 28q0 18 12 30t32 12q24 0 38.5 -17t14.5 -51z" />
<glyph unicode="&#x3c;" horiz-adv-x="212" d="M172 31l-162 264l162 264v-61l-119 -203l119 -203v-61z" />
<glyph unicode="=" horiz-adv-x="501" d="M456 346h-411v50h411v-50zM456 173h-411v50h411v-50z" />
<glyph unicode="&#x3e;" horiz-adv-x="212" d="M202 295l-162 -264v61l119 203l-119 203v61z" />
<glyph unicode="?" horiz-adv-x="306" d="M276 389q0 -38 -16.5 -66.5t-40 -45t-47 -31.5t-40 -35t-16.5 -47v-45h-13q-16 45 -16 83q0 21 7 35q7 13 35.5 24.5t58 21t53 34.5t23.5 62q0 63 -50.5 100.5t-130.5 47.5l-43 1v93h13q0 -13 3.5 -19.5t6.5 -8t15 -3t18 -2.5q88 -17 134 -62.5t46 -136.5zM149 26 q0 -16 -11 -27t-27 -11t-27 11t-11 27t11 27t27 11t27 -11t11 -27z" />
<glyph unicode="@" horiz-adv-x="453" d="M393 414q-86 34 -161 34q-72 0 -172 -34v11q76 33 170 33q92 0 163 -33v-11zM393 -66q-71 -33 -163 -33q-94 0 -170 33v11q100 -34 172 -34q75 0 161 34v-11zM391 9q-20 -19 -64 -19q-29 0 -42 13.5t-18 43.5q-27 -21 -39 -29t-35.5 -17.5t-46.5 -9.5q-31 0 -52.5 23 t-21.5 54q0 22 10.5 40.5t24.5 29.5t39 20.5t41.5 13.5t45 10.5t37.5 8.5q2 56 2 84q0 35 -24 55.5t-59 20.5q-21 0 -47.5 -9t-35.5 -24q2 -2 7.5 -6.5t8 -7.5t6.5 -7.5t5.5 -9t1.5 -9.5q0 -13 -9 -22t-22 -9q-11 0 -20.5 8.5t-9.5 19.5q0 38 47 71t90 33q60 0 88.5 -27 t28.5 -88q0 -28 -3.5 -86t-3.5 -86v-5q-1 -82 38 -82q13 0 29 9zM270 182q-9 -2 -30.5 -6.5t-33.5 -7t-29.5 -10t-27 -16t-17 -23t-7.5 -33.5q0 -31 18.5 -48t49.5 -17q28 0 74 34q0 21 1.5 63.5t1.5 63.5z" />
<glyph unicode="A" horiz-adv-x="616" d="M87 59l233 607h6l196 -584q17 -52 33.5 -62t70.5 -10v-10h-234v10h79l-74 238h-224l-94 -238h95v-10h-184v10q48 0 66 8t31 41zM176 258h217l-104 303z" />
<glyph unicode="B" horiz-adv-x="543" d="M507 168q0 -93 -90 -144q-42 -24 -131 -24h-252v10h30q26 0 36 9.5t10 37.5v551q0 33 -10 41.5t-47 8.5h-19v10h233q97 0 133 -27q66 -49 66 -134q0 -59 -46.5 -103.5t-106.5 -60.5q32 -5 62.5 -16.5t62 -31t50.5 -52.5t19 -75zM435 163q0 77 -36.5 124t-137.5 48h-81 v-325h89q67 0 112 31q54 37 54 122zM396 485q0 88 -37 133q-32 40 -101 40h-78v-312q54 -1 87 1q129 8 129 138z" />
<glyph unicode="C" horiz-adv-x="620" d="M585 142l-4 -117q-89 -35 -191 -35q-146 0 -253 100.5t-107 253.5q0 73 21.5 132t57 96.5t82.5 62.5t95.5 35.5t99.5 10.5q40 0 102.5 -13.5t83.5 -21.5q4 -92 4 -118l-10 -1q-13 83 -61.5 113t-139.5 30q-106 0 -180.5 -85t-74.5 -234q0 -68 17 -129t50 -111.5t89 -80 t128 -29.5q88 0 125 33t56 109z" />
<glyph unicode="D" horiz-adv-x="679" d="M649 338q0 -163 -96 -250.5t-231 -87.5h-289v10q31 0 44 1.5t23 12t10 33.5v554q0 14 -3.5 22.5t-8 13.5t-16 7.5t-19 3t-25.5 0.5h-5v10h275q46 0 92 -10.5t91.5 -35t80 -61t56 -94.5t21.5 -129zM568 331q0 170 -73.5 248.5t-193.5 78.5h-121v-648h145q50 0 92 17 t77 53.5t54.5 100.5t19.5 150z" />
<glyph unicode="E" horiz-adv-x="536" d="M511 0h-473v10h15q23 0 33 2t17 12.5t7 32.5v562q0 39 -35 39h-37v10h431v-111h-10q-6 53 -27.5 77t-77.5 24h-174v-318h154q34 0 40 11t6 74h10v-162h-10v67h-157q-17 0 -30 -8.5t-13 -26.5v-285h212q64 0 84 20t26 77h9v-107z" />
<glyph unicode="F" horiz-adv-x="485" d="M471 556h-9q-13 51 -32.5 76.5t-60.5 25.5h-189v-314h152q36 0 45.5 12t9.5 71h10v-162h-10v69h-171q-36 0 -36 -29v-295h85v-10h-219v10h7q36 0 46.5 6.5t10.5 34.5v552q0 26 -8 39t-18 15t-30 2h-9v9h426v-112z" />
<glyph unicode="G" horiz-adv-x="672" d="M658 255h-67q-2 -165 0 -186l6 -22q-105 -59 -229 -59q-45 0 -90.5 12t-91 39.5t-80 67t-56 101t-20.5 136.5q2 148 97.5 242.5t249.5 94.5q80 0 195 -35l5 -119h-10q-22 144 -189 144q-120 0 -194 -77.5t-74 -242.5q0 -79 17 -141.5t44.5 -101t64 -64.5t73 -36t74.5 -10 q37 0 72 10t53 24q21 16 21 51v140q0 32 -38 32h-44v10h211v-10z" />
<glyph unicode="H" horiz-adv-x="720" d="M680 0h-217v10h28q33 0 41 7.5t8 42.5v283h-360v-333h69v-10h-211v10h7q42 0 53.5 6.5t11.5 36.5v533q0 38 -6.5 55t-24.5 17h-41v10h209v-10h-67v-304h360v232q0 44 -4 58t-23 14h-39v10h206v-10h-70v-648h70v-10z" />
<glyph unicode="I" horiz-adv-x="290" d="M240 0h-195v10h7q40 0 49 6t9 37v561q0 17 -1 25t-6 13.5t-16 5.5h-42v10h195v-10h-60v-648h60v-10z" />
<glyph unicode="J" horiz-adv-x="285" d="M250 658h-70v-634q0 -164 -85 -243q-40 -37 -78 -37q-39 0 -64.5 18.5t-25.5 45.5q0 16 10 27.5t27 11.5q13 0 21 -10t8 -23q0 -23 -26 -32q4 -10 18.5 -20t30.5 -10q22 0 42.5 13t30.5 32q23 44 23 144q0 21 -1 52t-1 39v568q0 41 -5 49.5t-30 8.5h-36v10h211v-10z" />
<glyph unicode="K" horiz-adv-x="642" d="M656 0h-212v10h64l-286 337l-42 -50v-287h62v-10h-204v10h20q32 1 42 9t10 38v516q0 59 -7 72t-44 13h-14v10h197v-10h-62v-348l289 348h-80v10h184v-10h-55q-20 0 -34 -6t-33 -29l-183 -220l262 -310q69 -83 97 -83h29v-10z" />
<glyph unicode="L" horiz-adv-x="525" d="M521 0h-484v10q41 0 57 8.5t16 38.5v549q0 35 -13 43.5t-60 8.5v10h218v-10h-75v-648q161 0 248 2q66 1 83 110h10v-122z" />
<glyph unicode="M" horiz-adv-x="831" d="M796 0h-204v10h20q27 0 33 5.5t6 36.5v598l-260 -663h-6l-270 658v-635h81v-10h-171v10h33q27 1 37 9.5t10 35.5v547q0 37 -7.5 46.5t-38.5 9.5h-34v10h157l237 -583l229 583h148v-10h-75v-648h75v-10z" />
<glyph unicode="N" horiz-adv-x="665" d="M632 658h-67v-673h-3l-448 660v-635h88v-10h-172v10h15q18 0 27 1.5t18 5.5t12 13t3 25v544q0 39 -14.5 49t-51.5 10h-15v10h161l370 -545v506q0 18 -8 23.5t-44 5.5h-23v10h152v-10z" />
<glyph unicode="O" horiz-adv-x="740" d="M710 345q0 -81 -32.5 -150t-83.5 -113.5t-112 -69t-121 -24.5q-59 0 -116.5 23.5t-106 66t-78.5 111t-30 149.5q0 103 54 183t131 118.5t158 38.5q140 0 238.5 -95t98.5 -238zM630 344q0 144 -74 233.5t-182 89.5q-111 0 -187.5 -95.5t-76.5 -235.5q0 -162 71.5 -249 t191.5 -87q105 0 181 96t76 248z" />
<glyph unicode="P" horiz-adv-x="519" d="M497 478q0 -78 -39.5 -131t-102.5 -76q-41 -14 -93 -14q-41 0 -82 13v-260h73v-10h-211v10q43 0 55.5 7t12.5 40v529q0 27 -4 42t-16.5 21.5t-23 7.5t-36.5 1v10h235q112 0 171 -54.5t61 -135.5zM420 480q0 90 -47 134t-125 44h-68v-378q24 -13 81 -13q38 0 72 19 q37 21 62 72t25 122z" />
<glyph unicode="Q" horiz-adv-x="740" d="M775 -63q-34 -34 -94 -57t-119 -23q-53 0 -123.5 31.5t-114.5 101.5q-121 18 -207.5 111t-86.5 237q0 140 100 240t243 100q140 0 238.5 -95t98.5 -238q0 -132 -81.5 -228t-210.5 -124q5 -12 13 -24q35 -47 83 -65.5t89 -18.5q45 0 90 17.5t76 43.5zM630 339 q0 83 -27 156t-86.5 123t-140.5 50q-117 0 -191.5 -98t-74.5 -240q0 -154 71.5 -242t195.5 -88q102 0 177.5 96t75.5 243z" />
<glyph unicode="R" horiz-adv-x="598" d="M605 -3h-12q-99 -2 -147 36q-22 17 -33.5 41.5t-13 35.5t-4.5 45q-5 58 -10 85.5t-20 53t-41 35t-72 14.5l-72 5v-338h72v-10h-216v10h15q34 0 46.5 8t12.5 37v553q0 30 -13.5 39.5t-45.5 10.5h-18v10h246q88 0 130 -29q57 -39 55 -124q0 -44 -20 -78t-38.5 -47.5 t-37.5 -22.5q-38 -17 -61 -21q2 -1 35 -12t59.5 -28.5t44.5 -46.5q16 -25 23 -88.5t22 -95.5q9 -20 26 -36t31 -22q18 -8 57 -10v-10zM399 503q-3 71 -41.5 113t-115.5 42h-62v-299q66 -6 100 -6q46 0 75 27.5t37 59t7 63.5z" />
<glyph unicode="S" horiz-adv-x="469" d="M430 179q0 -84 -54 -138.5t-134 -54.5q-48 0 -108 13.5t-97 29.5v116h10q14 -79 62 -113.5t128 -34.5q67 0 105.5 33.5t38.5 97.5q0 53 -31 87t-99 77q-10 6 -35 21.5t-34.5 21.5t-29.5 20.5t-28.5 23.5t-21.5 24t-18 28.5t-9.5 32t-4.5 39.5q0 78 50 127t137 49 q72 0 155 -37v-109h-10q-10 62 -46 98t-96 36q-77 0 -107.5 -40.5t-30.5 -92.5q0 -46 28.5 -74t122.5 -89q6 -4 25.5 -16.5t26 -17t23.5 -16.5t23 -18.5t18.5 -18.5t17.5 -22.5t11.5 -23.5t9 -28t2.5 -31z" />
<glyph unicode="T" horiz-adv-x="549" d="M544 557h-10q-6 52 -27.5 76.5t-77.5 24.5h-121v-648h91v-10h-256v10h59q23 0 29.5 11t6.5 43v505q0 65 -7 77t-45 12h-66q-56 0 -77 -24t-28 -77h-10v111h539v-111z" />
<glyph unicode="U" horiz-adv-x="696" d="M682 658h-73v-327q0 -157 -62.5 -249t-169.5 -92q-46 0 -91.5 14.5t-88.5 45t-70 86.5t-27 130v340q0 32 -12.5 42t-45.5 10h-25v10h253v-10h-100v-348q0 -310 207 -310q38 0 74 16t71 51t56 100.5t21 152.5v295q0 28 -16.5 35.5t-61.5 7.5h-29v10h190v-10z" />
<glyph unicode="V" horiz-adv-x="613" d="M622 658q-48 -2 -61.5 -10t-26.5 -45l-163 -455l-55 -178h-9q-18 43 -27 69l-208 567q-19 52 -64 52h-23v10h237v-10h-92l207 -579l206 579h-101v10h180v-10z" />
<glyph unicode="W" horiz-adv-x="874" d="M890 658h-18q-9 0 -16 -0.5t-13 -1t-10.5 -2.5t-7.5 -2.5t-6 -5t-4.5 -6t-4 -8.5t-3.5 -9.5t-4 -12t-4 -14.5q-151 -482 -152 -485l-36 -141h-6q-18 53 -28 86l-124 405l-9 33q-6 -18 -9 -28l-138 -431l-18 -65h-6q-15 45 -24 73l-177 553q-12 40 -20.5 51t-28.5 11h-33 v10h203v-10h-62l173 -573l135 421l-9 33q-22 79 -34 99t-41 20h-23v10h201v-10h-64l165 -560l175 560h-96v10h177v-10z" />
<glyph unicode="X" horiz-adv-x="570" d="M572 0h-219v10h74l-156 301l-189 -301h93v-10h-179v10q55 0 69 6.5t36 42.5l165 261l-158 291q-3 6 -9 16.5t-7 12.5t-6.5 8t-8.5 6t-12.5 2t-18.5 2h-27v10h224v-10h-78l145 -275l167 275h-93v10h174v-10q-15 0 -26 -1t-19 -1.5t-15 -4t-10.5 -4.5t-9 -8t-7.5 -10 t-9 -14.5t-10 -16.5l-137 -223l146 -273q19 -35 43 -63.5t39 -28.5h29v-10z" />
<glyph unicode="Y" horiz-adv-x="481" d="M509 658q-47 0 -60.5 -10t-35.5 -56l-130 -278v-304h78v-10h-228v10h40q40 0 40 37v254l-136 268q-6 11 -13.5 27.5t-11 22.5t-9 15.5t-9 12t-10.5 6.5t-15 4.5t-19 0.5h-12v10h203v-10h-68l162 -341l161 341h-89v10h162v-10z" />
<glyph unicode="Z" horiz-adv-x="505" d="M496 122l-15 -122h-471l397 658h-276q-74 0 -110 -120h-11l18 130h462l-396 -658h291q32 0 60.5 33.5t40.5 78.5h10z" />
<glyph unicode="[" horiz-adv-x="293" d="M262 658h-89v-952h87v-10h-140v972h142v-10z" />
<glyph unicode="\" horiz-adv-x="356" d="M341 -14h-47l-274 658h48z" />
<glyph unicode="]" horiz-adv-x="293" d="M173 -304h-140v10h87v952h-89v10h142v-972z" />
<glyph unicode="^" horiz-adv-x="315" d="M295 530l-6 -18l-122 158h-10l-125 -164l-12 6l133 227h17z" />
<glyph unicode="_" horiz-adv-x="417" d="M422 -112h-427v40h427v-40z" />
<glyph unicode="`" horiz-adv-x="221" d="M150 436l-7 -2l-97 174l20 20h31z" />
<glyph unicode="a" horiz-adv-x="351" d="M347 9q-20 -19 -64 -19q-29 0 -42 13.5t-18 43.5q-27 -21 -39 -29t-35.5 -17.5t-46.5 -9.5q-30 0 -52 23.5t-22 53.5q0 22 10.5 40.5t24.5 29.5t39 20.5t41.5 13.5t45 10.5t37.5 8.5q2 56 2 84q0 35 -24 55.5t-59 20.5q-22 0 -47.5 -9t-35.5 -24q2 -2 7.5 -6.5t8 -7.5 t6.5 -7.5t5.5 -9t1.5 -9.5q0 -13 -9 -22t-22 -9q-11 0 -20.5 8.5t-9.5 19.5q0 12 7 24q18 34 55 57t75 23q60 0 88.5 -27t28.5 -88q0 -28 -3.5 -86t-3.5 -86v-5q-1 -82 38 -82q13 0 29 9zM226 182q-9 -2 -30.5 -6.5t-33.5 -7t-29.5 -10t-27 -16t-17 -23t-7.5 -33.5 q0 -31 18.5 -48t49.5 -17q28 0 74 34q0 21 1.5 63.5t1.5 63.5z" />
<glyph unicode="b" d="M410 193q0 -75 -57.5 -140t-132.5 -65q-42 0 -84 18q-26 12 -37 12q-19 0 -33 -18h-11v639q0 26 -3.5 32.5t-17.5 6.5h-28v10h109v-358q6 3 25.5 15.5t26.5 16t22.5 10.5t30 9t31.5 2q78 0 118.5 -54.5t40.5 -135.5zM346 174q0 47 -10.5 86.5t-41.5 70t-78 30.5 q-40 0 -101 -41v-254q0 -35 33 -51.5t72 -16.5q36 0 62 15t39 42t19 56t6 63z" />
<glyph unicode="c" horiz-adv-x="359" d="M345 72q-14 -25 -52.5 -54.5t-86.5 -29.5q-73 0 -128 54t-55 145q0 82 59 138.5t137 56.5q47 0 85.5 -19t38.5 -44q0 -14 -9.5 -24.5t-23.5 -10.5q-13 0 -22 9t-9 22q0 19 17 31q-29 28 -76 28q-52 0 -91 -48.5t-39 -116.5q0 -88 42.5 -144.5t97.5 -56.5q32 0 61 21.5 t46 47.5z" />
<glyph unicode="d" horiz-adv-x="442" d="M424 0h-112v50q-15 -19 -55.5 -39.5t-68.5 -20.5q-73 0 -119 52t-46 126q0 83 54 148.5t136 65.5q58 0 99 -41v301q0 21 -5.5 28.5t-23.5 7.5h-27v10h116v-678h52v-10zM312 60v271q-40 38 -83 38q-51 0 -95.5 -48t-44.5 -130q0 -72 33.5 -123t97.5 -51q55 0 92 43z" />
<glyph unicode="e" horiz-adv-x="369" d="M349 225h-263v-16q0 -44 13.5 -87.5t46.5 -78t78 -34.5q66 0 113 69l7 -5q-21 -36 -58.5 -59.5t-77.5 -23.5q-86 0 -135.5 55t-49.5 143q0 80 49 136.5t128 56.5q46 0 81.5 -20.5t51.5 -61.5q16 -38 16 -74zM292 235q-13 137 -91 137q-62 0 -87 -36t-28 -101h206z" />
<glyph unicode="f" horiz-adv-x="236" d="M348 642q0 -13 -9 -23.5t-22 -10.5q-12 0 -21.5 9t-9.5 21q0 16 15 28q-13 20 -43 20q-133 0 -133 -195v-120h85v-10h-58q-17 0 -22 -6.5t-5 -24.5v-320h76v-10h-187v10h27q17 0 20.5 3.5t3.5 20.5v420q0 112 62 176t138 64q31 0 57 -12t26 -40z" />
<glyph unicode="g" horiz-adv-x="400" d="M427 -128q0 -72 -60.5 -124t-135.5 -59q-10 -1 -32 -1q-43 0 -79 9.5t-64.5 37.5t-28.5 72q0 63 90 112q-38 7 -62.5 31.5t-24.5 55.5q0 28 12 53t24.5 38.5t33.5 30.5q-27 19 -43 50t-16 64q0 59 45 99.5t105 40.5q70 0 99 -62q32 55 72 55q16 0 28 -9t12 -25 q0 -13 -8.5 -20.5t-21.5 -7.5q-10 0 -17.5 7t-7.5 17q0 14 16 26q-5 3 -9 3q-14 0 -27 -12.5t-13 -26.5q0 -5 12 -36t12 -57q0 -56 -41.5 -92.5t-97.5 -36.5q-25 0 -48.5 11t-28.5 11q-10 0 -28 -16q-32 -30 -32 -65q0 -29 22.5 -44.5t60.5 -15.5q23 0 68.5 6t68.5 6 q65 0 105 -31t40 -95zM192 373q-47 0 -70 -38.5t-23 -88.5q0 -51 26.5 -91.5t75.5 -40.5q40 0 62 43t22 87q0 53 -22 91t-71 38zM390 -144q0 82 -135 82q-13 0 -41 -2q-69 -8 -89 -21q-40 -26 -40 -88q0 -58 43.5 -90.5t103.5 -32.5q69 0 113.5 42t44.5 110z" />
<glyph unicode="h" horiz-adv-x="441" d="M422 0h-155v10h25q15 0 20 6.5t5 24.5v197q0 28 -2 46t-10 36.5t-25.5 27.5t-45.5 9q-22 0 -42.5 -9t-33 -18.5t-33.5 -29.5v-290h44v-10h-152v10h21q17 0 22 4t5 20v605q0 28 -7.5 33.5t-33.5 5.5h-7v10h108v-378q27 29 72 51.5t82 22.5q98 0 98 -138v-236h45v-10z" />
<glyph unicode="i" horiz-adv-x="197" d="M133 575q0 -16 -11 -27t-27 -11t-27 11t-11 27t11 27t27 11t27 -11t11 -27zM175 0h-152v10h25q14 0 18.5 5t4.5 23v279q0 17 -0.5 24t-6.5 13.5t-19 6.5h-22v10h108v-361h44v-10z" />
<glyph unicode="j" horiz-adv-x="190" d="M133 580q0 -16 -11 -27t-27 -11t-27 11t-11 27t11 27t27 11t27 -11t11 -27zM130 -30q0 -156 -41 -220q-10 -16 -31 -31t-41 -15q-32 0 -55.5 17.5t-23.5 40.5q0 17 10 27.5t22 10.5q30 0 30 -30q0 -21 -28 -32q5 -10 6.5 -12.5t12.5 -8.5t26 -6q25 0 40.5 25.5t16.5 56.5 q0 6 -2 58.5t-2 74.5v392v8.5v9t-0.5 7.5t-1.5 7.5t-3.5 5.5t-6 4t-8.5 1h-33v10h113v-401z" />
<glyph unicode="k" horiz-adv-x="387" d="M405 0h-152v10h48l-176 193v-193h44v-10h-152v10h22q16 0 21 4t5 20v608q0 22 -5 29t-23 7h-20v10h108v-479l149 152h-51v10h130v-10h-65l-119 -121l208 -230h28v-10z" />
<glyph unicode="l" horiz-adv-x="190" d="M170 0h-152v10h25q13 0 18 4.5t5 19.5v596q0 29 -4.5 38.5t-20.5 9.5h-23v10h108v-678h44v-10z" />
<glyph unicode="m" horiz-adv-x="650" d="M633 0h-159v10h13q18 0 24.5 0.5t10.5 4.5t4 13v205q0 119 -60 119q-52 0 -111 -51v-291h43v-10h-151v10q37 0 42 4q6 5 6 24v195q0 26 -1.5 44t-7 37t-17.5 28.5t-30 9.5q-15 0 -25.5 -2.5t-32 -14t-51.5 -35.5v-290h45v-10h-157v10h18q19 0 26.5 4.5t7.5 19.5v284 q0 24 -6 33.5t-27 9.5h-19v10h112v-61q21 21 60.5 46t67.5 25q42 0 67 -18t28 -52q42 36 71 52.5t63 16.5q56 0 77.5 -28.5t21.5 -96.5v-245h47v-10z" />
<glyph unicode="n" horiz-adv-x="438" d="M421 0h-162v10h35q13 0 16.5 4.5t3.5 23.5v185q0 30 -0.5 46t-4.5 35.5t-11.5 28.5t-21 15.5t-34.5 6.5q-47 0 -112 -55v-290h42v-10h-150v10h22q17 0 21.5 4.5t4.5 19.5v284q0 25 -4 34t-23 9h-21v10h108v-61q22 22 63 47.5t73 25.5q64 0 86 -33t22 -105v-235h47v-10z " />
<glyph unicode="o" d="M409 185q0 -76 -57.5 -136.5t-144.5 -60.5q-77 0 -130.5 55.5t-53.5 138.5q0 78 58.5 139.5t132.5 61.5q93 0 144 -58t51 -140zM344 187q0 82 -37 134.5t-94 52.5q-60 0 -92 -57t-32 -130q0 -83 38 -136.5t84 -53.5q38 0 65.5 17t41.5 46t20 60t6 67z" />
<glyph unicode="p" horiz-adv-x="442" d="M419 203q0 -92 -49.5 -151.5t-127.5 -59.5q-56 0 -117 46v-332h64v-10h-172v10h22q17 0 21.5 3.5t4.5 20.5v609q0 13 -4 17.5t-17 4.5h-27v10h108v-44q78 58 130 58q82 0 123 -54t41 -128zM352 177q0 48 -10 88t-38.5 70t-71.5 30q-51 0 -107 -50v-266q56 -44 98 -44 q35 0 62 17t40.5 44t20 55t6.5 56z" />
<glyph unicode="q" horiz-adv-x="433" d="M421 -304h-173v10h38q18 0 22.5 5.5t4.5 20.5v307q-39 -50 -110 -50q-74 0 -127.5 55.5t-53.5 130.5q0 89 58.5 148t147.5 59q40 0 86 -20l59 24v-680h48v-10zM313 51v301q-35 21 -87 21q-57 0 -97 -61t-40 -131q0 -64 37 -119.5t98 -55.5q57 0 89 45z" />
<glyph unicode="r" horiz-adv-x="297" d="M298 342q0 -16 -8.5 -27t-22.5 -11t-23.5 8t-9.5 24q0 20 16 27q-8 4 -12 4q-23 0 -54 -22.5t-54 -50.5v-284h56v-10h-164v10h24q14 0 19 5.5t5 22.5v279q0 26 -4.5 35t-19.5 9h-24v10h108v-67q35 39 63 58t63 19q42 0 42 -39z" />
<glyph unicode="s" horiz-adv-x="292" d="M268 96q-1 -52 -38 -80t-92 -28q-22 0 -50.5 6t-46.5 12l-18 7v83h11q5 -99 102 -99q36 0 58.5 22.5t22.5 53.5q0 19 -12.5 37t-25.5 28.5t-37 25.5q-5 3 -23 15l-25.5 17t-21 16.5t-19.5 19t-11.5 19t-5.5 22.5q0 47 31 78.5t83 31.5q65 0 97 -27v-69h-11 q-1 30 -24.5 58.5t-63.5 28.5q-32 0 -51 -18t-19 -43q0 -10 7 -20.5t21.5 -22.5t26 -20t31 -20t24.5 -16q42 -28 60.5 -52t19.5 -66z" />
<glyph unicode="t" horiz-adv-x="235" d="M224 30q-9 -12 -31 -25t-46 -13q-50 0 -69 23t-19 73l2 369l60 25v-111h94v-10h-73q-21 0 -21 -24l-2 -251q0 -43 8 -61.5t36 -19.5q24 -1 55 30z" />
<glyph unicode="u" horiz-adv-x="424" d="M400 0h-105v61q-28 -23 -43.5 -34t-44 -24t-52.5 -13q-91 0 -91 147v183q0 28 -4.5 34.5t-21.5 6.5h-22v10h108v-238q0 -22 1.5 -37t7 -34.5t19 -29.5t34.5 -10q60 0 109 51v262q0 18 -5.5 22t-26.5 4h-22v10h114v-323q0 -26 7 -32t29 -6h9v-10z" />
<glyph unicode="v" horiz-adv-x="375" d="M390 361q-21 0 -30 -1.5t-18.5 -11t-17.5 -30.5l-130 -335h-9l-125 335q-11 30 -20 36.5t-35 6.5h-14v10h176v-10h-57l105 -295l115 295h-58v10h118v-10z" />
<glyph unicode="w" horiz-adv-x="587" d="M596 361h-14q-21 0 -30 -5.5t-16 -27.5l-118 -349h-8l-110 295l-111 -295h-8l-129 362q-5 15 -12.5 17.5t-43.5 2.5v10h165v-10h-50l97 -303l88 233l-25 70h-33v10h145v-10h-10q-30 0 -30 -20q0 -9 5 -24l89 -252l99 296h-48v10h108v-10z" />
<glyph unicode="x" horiz-adv-x="387" d="M387 0h-169v10h53l-97 149l-101 -149h66v-10h-136v10h24q24 0 34.5 7.5t28.5 33.5l79 117l-114 171q-15 22 -35 22h-20v10h169v-10h-53l93 -143l95 143h-65v10h135v-10h-34q-25 0 -37 -19l-88 -131l102 -159q16 -24 25.5 -33t22.5 -9h22v-10z" />
<glyph unicode="y" horiz-adv-x="366" d="M377 361h-23q-4 0 -6.5 -0.5t-5 -0.5t-4.5 -1.5t-3.5 -2.5t-3.5 -4l-3 -4.5t-2.5 -6t-3 -7t-3.5 -9t-4 -10.5l-215 -557q-10 -27 -24 -44q-15 -18 -32 -18q-15 0 -23 10t-8 23t9 23.5t23 10.5q11 0 19 -8.5t8 -19.5q10 6 15 21l92 234l-129 325q-1 4 -4 11.5l-4 10 t-3.5 8t-5 7.5t-5.5 4.5t-7 3.5t-9 1h-29v10h177v-10h-58l107 -294l112 294h-53v10h109v-10z" />
<glyph unicode="z" horiz-adv-x="325" d="M311 83l-10 -83h-287l214 361h-114q-43 0 -59.5 -13t-27.5 -50h-9l10 73h270l-214 -361h144q20 0 34 6t22 20t10.5 21.5t7.5 25.5h9z" />
<glyph unicode="{" horiz-adv-x="408" d="M389 -200q0 -27 -24 -43.5t-54 -16.5q-44 0 -76 25.5t-48.5 66.5t-24 83.5t-7.5 86.5v19q0 33 -1 52.5t-6.5 46.5t-16.5 44t-31 32t-50 23v5q30 8 50 23t31 32t16.5 44t6.5 46.5t1 52.5v19q0 44 7.5 86t23.5 83.5t48 67t76 25.5q29 0 54 -16.5t25 -43.5q0 -12 -7.5 -20.5 t-21.5 -8.5q-25 0 -25 26q0 9 6.5 16.5t14.5 8.5q-1 9 -13 18.5t-29 9.5q-72 -1 -96 -43.5t-24 -120.5q0 -17 3.5 -71.5t3.5 -71.5q0 -59 -35 -105t-102 -60q2 0 4 -0.5t4.5 -1.5t4.5 -1q62 -18 93 -61t31 -100q0 -17 -3.5 -71.5t-3.5 -71.5q0 -78 24 -120.5t96 -43.5 q17 0 29 9.5t13 18.5q-8 1 -14.5 8.5t-6.5 16.5q0 11 7 18.5t18 7.5q14 0 21.5 -8.5t7.5 -20.5z" />
<glyph unicode="|" horiz-adv-x="196" d="M116 -157h-36v764h36v-764z" />
<glyph unicode="}" horiz-adv-x="408" d="M358 219q-37 -10 -60 -29.5t-32 -52.5t-11 -56.5t-2 -68.5v-10q0 -44 -7.5 -86.5t-24 -83.5t-48.5 -66.5t-75 -25.5q-29 0 -54 16.5t-25 43.5q0 12 7.5 20.5t21.5 8.5q11 0 18 -7.5t7 -18.5q0 -9 -6.5 -16.5t-14.5 -8.5q1 -9 13 -18.5t29 -9.5q72 1 96 43.5t24 120.5 q0 17 -3.5 71.5t-3.5 71.5q0 57 31 100t93 61q3 1 7 2.5t6 1.5q-2 0 -4 0.5t-4.5 1.5t-4.5 1q-62 18 -93 61t-31 100q0 17 3.5 71.5t3.5 71.5q0 78 -24 120.5t-96 43.5q-17 0 -29 -9.5t-13 -18.5q8 -1 14.5 -8.5t6.5 -16.5q0 -26 -25 -26q-14 0 -21.5 8.5t-7.5 20.5 q0 27 25 43.5t54 16.5q43 0 75 -25.5t48.5 -66.5t24 -83.5t7.5 -86.5v-10q0 -45 2 -68.5t11 -56.5t32 -52.5t60 -29.5v-5z" />
<glyph unicode="~" horiz-adv-x="460" d="M420 740q-23 -47 -54 -72t-60 -25q-22 0 -69.5 31.5t-72.5 31.5q-50 0 -112 -56l-6 7q26 33 67 62t71 29q39 0 74 -27.5t69 -27.5q48 0 84 50z" />
<glyph unicode="&#xa1;" horiz-adv-x="294" d="M80 -223q8 0 14.5 2.5t10 8t6 11t3.5 16t1 17t0.5 20.5t0.5 21l13 397h33l13 -397q0 -6 0.5 -16.5t0.5 -16t1 -14.5t2 -14t2.5 -11.5t4.5 -10t7 -7t9 -5t12 -1.5v-9h-134v9zM106 361q0 16 11 27t27 11t27 -11t11 -27t-11 -27t-27 -11t-27 11t-11 27z" />
<glyph unicode="&#xa2;" horiz-adv-x="392" d="M216 629h11v-147q47 -1 85 -20t38 -43q0 -14 -9.5 -24.5t-23.5 -10.5q-13 0 -22 9t-9 22q0 19 17 31q-29 28 -76 28v-366h10q32 0 61 21.5t46 47.5l8 -5q-13 -23 -47 -50.5t-78 -32.5v-170h-11v169h-3q-73 0 -128 54t-55 145q0 79 55 134.5t131 60.5v147zM97 309 q0 -79 34.5 -133.5t84.5 -65.5v363q-49 -5 -84 -52.5t-35 -111.5z" />
<glyph unicode="&#xa3;" horiz-adv-x="382" d="M367 0h-337v10h29q16 0 19 4t3 20v360q0 112 62 176t138 64q30 0 56.5 -11.5t26.5 -40.5q0 -13 -9 -23.5t-23 -10.5q-12 0 -21.5 9.5t-8.5 20.5q1 16 15 28q-13 20 -43 20q-133 0 -133 -195v-100h105v-12h-78q-16 0 -21.5 -6t-5.5 -25v-278h226v-10z" />
<glyph unicode="&#xa4;" horiz-adv-x="509" d="M410 312v-14h-266v14h266zM410 272v-14h-266v14h266zM474 119l-3 -99q-69 -30 -153 -30q-117 0 -202.5 85.5t-85.5 215.5q0 62 17.5 112t45.5 82t66 53t76.5 30t79.5 9q32 0 81 -11t68 -18q3 -79 3 -101l-8 -1q-11 71 -49 94.5t-112 23.5q-86 0 -145 -70.5t-59 -196.5 q0 -79 22.5 -144t75.5 -108.5t129 -43.5q71 0 101 27t44 92z" />
<glyph unicode="&#xa5;" horiz-adv-x="486" d="M514 642q-47 0 -61 -9t-36 -53l-95 -188h150v-10h-155l-32 -66v-84h147v-10h-147v-212h79v-10h-225v10h37q14 0 23 3q16 5 16 28v181h-152v10h152v62l-45 88h-147v10h142l-87 166q-32 65 -42 73q-12 11 -58 11v10h203v-10h-64l121 -250h71l125 250h-81v10h161v-10z M304 382h-61l30 -62z" />
<glyph unicode="&#xa6;" horiz-adv-x="196" d="M116 -157h-36v314h36v-314zM116 292h-36v315h36v-315z" />
<glyph unicode="&#xa7;" horiz-adv-x="413" d="M363 614q0 -16 -10 -27.5t-27 -11.5q-13 0 -21 10t-8 23q0 23 26 32q-7 20 -49 20q-51 0 -87.5 -47.5t-36.5 -162.5v-586h-50v524q0 164 85 243q40 37 88 37q41 0 65.5 -14t24.5 -40zM293 -24q0 -164 -85 -243q-40 -37 -78 -37q-39 0 -64.5 18.5t-25.5 45.5q0 16 10 27.5 t27 11.5q13 0 21 -10t8 -23q0 -23 -26 -32q4 -10 18.5 -20t30.5 -10q50 0 82 49t32 141v604h50v-522z" />
<glyph unicode="&#xa8;" horiz-adv-x="267" d="M251 486q0 -14 -9.5 -23.5t-22.5 -9.5t-23 9.5t-10 23.5q0 13 9.5 22.5t23.5 9.5q13 0 22.5 -9t9.5 -23zM81 486q0 -14 -9.5 -23.5t-22.5 -9.5t-23 9.5t-10 23.5q0 13 9.5 22.5t23.5 9.5q13 0 22.5 -9t9.5 -23z" />
<glyph unicode="&#xa9;" horiz-adv-x="742" d="M692 325q0 -140 -94 -239t-227 -99t-227 99t-94 239t94 239.5t227 99.5t227 -99.5t94 -239.5zM671 325q0 130 -89.5 227.5t-211.5 97.5q-121 0 -208.5 -97t-87.5 -228q0 -130 88.5 -227t209.5 -97q122 0 210.5 97t88.5 227zM509 219l-12 -65q-54 -18 -109 -18 q-74 0 -131 52t-57 139q0 93 60 140.5t138 47.5q27 0 54 -5t40 -10l13 -5l3 -70h-10q-16 40 -40 60.5t-68 20.5q-63 0 -94.5 -47.5t-31.5 -130.5q0 -89 37.5 -136t88.5 -47q26 0 45.5 6.5t32.5 21t18.5 23t13.5 25.5z" />
<glyph unicode="&#xab;" horiz-adv-x="387" d="M342 304q-4 -1 -11 -2.5t-25 -9t-32 -18.5t-25 -31.5t-11 -45.5q0 -26 9 -48t22 -35.5t27 -23.5t24 -14t13 -4v-8q-6 1 -15 4t-33 13.5t-42 24t-33 37t-15 50.5q0 29 15 52.5t34.5 35t43 19.5t36.5 10t18 2v-8zM192 304q-3 0 -13.5 -2.5t-26 -10.5t-30 -19t-24.5 -31 t-10 -44q0 -26 9.5 -48.5t22 -35.5t27 -23t23.5 -13.5t13 -4.5v-8q-6 1 -15 4t-33 13.5t-42 24t-33 37t-15 50.5q0 30 15 53t35.5 35t44 19.5t36 9.5t16.5 2v-8z" />
<glyph unicode="&#xac;" horiz-adv-x="391" d="M297 114v123h-248v50h298v-173h-50z" />
<glyph unicode="&#xad;" horiz-adv-x="274" d="M234 180h-194v36h194v-36z" />
<glyph unicode="&#xae;" horiz-adv-x="725" d="M45 309q0 132 92.5 225t224.5 93t225 -93t93 -225t-93 -224.5t-225 -92.5t-224.5 92.5t-92.5 224.5zM74 309q0 -120 84 -204t204 -84t204.5 84t84.5 204t-84.5 204.5t-204.5 84.5t-204 -84.5t-84 -204.5zM418 404q0 40 -25 55t-83 15v-154h11q97 0 97 84zM534 155v-10 q-40 -4 -46 -4q-64 0 -76 84t-96 84h-6v-117q0 -20 5.5 -28.5t21.5 -9.5h11v-10h-123v10h9q15 2 21.5 12t6.5 36v233q0 26 -6.5 33t-30.5 7v10h128q54 0 81.5 -22.5t27.5 -62.5q0 -13 -4.5 -24.5t-12 -20t-15.5 -15t-18.5 -11l-17.5 -7.5t-14 -5.5t-8 -2.5q15 -5 41.5 -19.5 t31.5 -24.5q3 -6 9.5 -29t12.5 -38.5t23.5 -30.5t43.5 -17z" />
<glyph unicode="&#xaf;" horiz-adv-x="279" d="M287 494h-224v20h224v-20z" />
<glyph unicode="&#xb0;" horiz-adv-x="142" d="M122 546q0 -21 -15 -36t-36 -15t-36 15t-15 36t15 36t36 15t36 -15t15 -36zM107 546q0 15 -10.5 25.5t-25.5 10.5t-25.5 -10.5t-10.5 -25.5t10.5 -25.5t25.5 -10.5t25.5 10.5t10.5 25.5z" />
<glyph unicode="&#xb1;" horiz-adv-x="443" d="M393 604q0 -16 -10 -27.5t-27 -11.5q-13 0 -21 10t-8 23q0 23 26 32q-4 10 -18.5 20t-30.5 10q-7 0 -11 -1v-685q0 -164 -85 -243q-40 -37 -78 -37q-39 0 -64.5 18.5t-25.5 45.5q0 16 10 27.5t27 11.5q13 0 21 -10t8 -23q0 -23 -26 -32q4 -10 18.5 -20t30.5 -10q7 0 11 1 v685q0 164 85 243q40 37 78 37q39 0 64.5 -18.5t25.5 -45.5zM243 -88v720q-7 -7 -12 -17q-41 -78 -41 -175v-710q7 7 12 17q41 78 41 165z" />
<glyph unicode="&#xb4;" horiz-adv-x="221" d="M53 434l-7 2l53 192h31l20 -20z" />
<glyph unicode="&#xb6;" horiz-adv-x="527" d="M507 658h-31q-33 0 -46 -13.5t-13 -58.5v-610q0 -164 -85 -243q-40 -37 -78 -37q-39 0 -64.5 18.5t-25.5 45.5q0 16 10 27.5t27 11.5q13 0 21 -10t8 -23q0 -23 -26 -32q4 -10 18.5 -20t30.5 -10q22 0 42.5 13t30.5 32q20 38 25.5 76t5.5 135v310q-42 -13 -69 -13 q-88 0 -158 60.5t-70 160.5q0 82 55 136t167 54h225v-10z" />
<glyph unicode="&#xb7;" horiz-adv-x="196" d="M136 196q0 -16 -11 -27t-27 -11t-27 11t-11 27t11 27t27 11t27 -11t11 -27z" />
<glyph unicode="&#xb8;" horiz-adv-x="629" d="M394 1l-9 -11q-18 -25 -18 -45q0 -11 30.5 -43.5t30.5 -49.5q0 -22 -17.5 -35.5t-39.5 -13.5q-31 0 -56 34l6 5q14 -15 42 -15q36 0 36 35q0 14 -22.5 43t-22.5 41q0 11 9 28t19 27h12z" />
<glyph unicode="&#xba;" horiz-adv-x="569" d="M549 225h-143q3 -16 3 -39q0 -83 -64 -144q35 -33 79 -33q66 0 113 69l7 -5q-21 -36 -58.5 -59.5t-77.5 -23.5q-57 0 -99 25q-44 -27 -100 -27q-77 0 -131.5 55.5t-54.5 138.5q0 78 58.5 139.5t132.5 61.5q57 0 100 -24q39 22 86 22q46 0 81.5 -20.5t51.5 -61.5 q16 -38 16 -74zM212 -3q49 0 80 29q-69 54 -69 162q0 97 67 153q-35 33 -78 33q-60 0 -91.5 -58.5t-31.5 -131.5q0 -82 38 -134.5t85 -52.5zM492 235q-13 137 -91 137q-46 0 -73 -22q59 -40 75 -115h89zM286 235v-26q0 -80 37 -138q21 48 21 114q0 19 -4 50q-9 53 -35 88 q-17 -32 -19 -88z" />
<glyph unicode="&#xbb;" horiz-adv-x="387" d="M45 73q4 1 11 2.5t25 9t32 18.5t25 31.5t11 45.5q0 26 -9 48t-22 35.5t-27 23.5t-24 14t-13 4v8q6 -1 15 -4t33 -13.5t42 -24t33 -37t15 -50.5q0 -29 -15 -52.5t-34.5 -35t-43 -19.5t-36.5 -10t-18 -2v8zM195 73q3 0 13.5 2.5t26 10.5t30 19t24.5 31t10 44 q0 26 -9.5 48.5t-22 35.5t-27 23t-23.5 13.5t-13 4.5v8q6 -1 15 -4t33 -13.5t42 -24t33 -37t15 -50.5q0 -30 -15 -53t-35.5 -35t-44 -19.5t-36 -9.5t-16.5 -2v8z" />
<glyph unicode="&#xbf;" horiz-adv-x="306" d="M30 11q0 38 16.5 66.5t40 45t47 31.5t40 35t16.5 47v45h13q16 -45 16 -83q0 -21 -7 -35q-7 -13 -35.5 -24.5t-58 -21t-53 -34.5t-23.5 -62q0 -63 50.5 -100.5t130.5 -47.5l43 -1v-93h-13q0 13 -3.5 19.5t-6.5 8t-15 3t-18 2.5q-88 17 -134 62.5t-46 136.5zM157 374 q0 16 11 27t27 11t27 -11t11 -27t-11 -27t-27 -11t-27 11t-11 27z" />
<glyph unicode="&#xc0;" horiz-adv-x="616" d="M217 732l-3 28l20 24l181 -83l-3 -7zM87 59l233 607h6l196 -584q17 -52 33.5 -62t70.5 -10v-10h-234v10h79l-74 238h-224l-94 -238h95v-10h-184v10q48 0 66 8t31 41zM176 258h217l-104 303z" />
<glyph unicode="&#xc1;" horiz-adv-x="616" d="M435 760l-3 -28l-195 -38l-3 7l181 83zM87 59l233 607h6l196 -584q17 -52 33.5 -62t70.5 -10v-10h-234v10h79l-74 238h-224l-94 -238h95v-10h-184v10q48 0 66 8t31 41zM176 258h217l-104 303z" />
<glyph unicode="&#xc2;" horiz-adv-x="616" d="M453 629l-8 -4l-121 79h-7l-123 -79l-8 4l131 111h7zM87 59l233 607h6l196 -584q17 -52 33.5 -62t70.5 -10v-10h-234v10h79l-74 238h-224l-94 -238h95v-10h-184v10q48 0 66 8t31 41zM176 258h217l-104 303z" />
<glyph unicode="&#xc3;" horiz-adv-x="616" d="M87 59l233 607h6l196 -584q17 -52 33.5 -62t70.5 -10v-10h-234v10h79l-74 238h-224l-94 -238h95v-10h-184v10q48 0 66 8t31 41zM176 258h217l-104 303zM455 771q-9 -31 -34.5 -48.5t-54.5 -17.5q-22 0 -65.5 21.5t-65.5 21.5q-39 0 -65 -35h-9q39 62 108 62 q23 0 63.5 -20t64.5 -20q20 0 31 8t19 28h8z" />
<glyph unicode="&#xc4;" horiz-adv-x="616" d="M472 666q0 -14 -9.5 -23.5t-22.5 -9.5q-14 0 -23.5 9.5t-9.5 23.5q0 13 9.5 22.5t23.5 9.5t23 -9t9 -23zM211 666q0 -14 -9.5 -23.5t-22.5 -9.5t-23 9.5t-10 23.5q0 13 9.5 22.5t23.5 9.5q13 0 22.5 -9t9.5 -23zM87 59l233 607h6l196 -584q17 -52 33.5 -62t70.5 -10v-10 h-234v10h79l-74 238h-224l-94 -238h95v-10h-184v10q48 0 66 8t31 41zM176 258h217l-104 303z" />
<glyph unicode="&#xc5;" horiz-adv-x="616" d="M87 59l233 607h6l196 -584q17 -52 33.5 -62t70.5 -10v-10h-234v10h79l-74 238h-224l-94 -238h95v-10h-184v10q48 0 66 8t31 41zM176 258h217l-104 303zM380 742q0 -27 -19.5 -46.5t-46.5 -19.5t-46.5 19.5t-19.5 46.5t19.5 46.5t46.5 19.5t46.5 -19.5t19.5 -46.5z M367 742q0 22 -15.5 37.5t-37.5 15.5t-37.5 -15.5t-15.5 -37.5t15.5 -37.5t37.5 -15.5t37.5 15.5t15.5 37.5z" />
<glyph unicode="&#xc6;" horiz-adv-x="702" d="M677 0h-473v10h20q30 0 41 8.5t11 38.5v191h-113l-94 -238h95v-10h-184v10h29q29 2 43 11.5t25 37.5l199 518v42q0 39 -35 39h-37v10h431v-111h-11q-5 53 -26.5 77t-67.5 24h-184v-318h154q34 0 40 11t6 74h10v-162h-10v67h-157q-43 0 -43 -38v-282h227q52 0 72 23t22 76 h10v-109zM276 258v294l-110 -294h110z" />
<glyph unicode="&#xc7;" horiz-adv-x="620" d="M585 142l-4 -117q-89 -35 -191 -35h-5q-18 -25 -18 -45q0 -11 30.5 -43.5t30.5 -49.5q0 -22 -17.5 -35.5t-39.5 -13.5q-31 0 -56 34l6 5q14 -15 42 -15q36 0 36 35q0 14 -22.5 43t-22.5 41q0 18 19 45q-141 6 -242 105.5t-101 247.5q0 73 21.5 132t57 96.5t82.5 62.5 t95.5 35.5t99.5 10.5q40 0 102.5 -13.5t83.5 -21.5q4 -92 4 -118l-10 -1q-13 83 -61.5 113t-139.5 30q-106 0 -180.5 -85t-74.5 -234q0 -68 17 -129t50 -111.5t89 -80t128 -29.5q88 0 125 33t56 109z" />
<glyph unicode="&#xc8;" horiz-adv-x="536" d="M511 0h-473v10h15q23 0 33 2t17 12.5t7 32.5v562q0 39 -35 39h-37v10h431v-111h-10q-6 53 -27.5 77t-77.5 24h-174v-318h154q34 0 40 11t6 74h10v-162h-10v67h-157q-17 0 -30 -8.5t-13 -26.5v-285h212q64 0 84 20t26 77h9v-107zM160 740l-3 28l20 24l181 -83l-3 -7z" />
<glyph unicode="&#xc9;" horiz-adv-x="536" d="M511 0h-473v10h15q23 0 33 2t17 12.5t7 32.5v562q0 39 -35 39h-37v10h431v-111h-10q-6 53 -27.5 77t-77.5 24h-174v-318h154q34 0 40 11t6 74h10v-162h-10v67h-157q-17 0 -30 -8.5t-13 -26.5v-285h212q64 0 84 20t26 77h9v-107zM423 760l-3 -28l-195 -38l-3 7l181 83z " />
<glyph unicode="&#xca;" horiz-adv-x="536" d="M511 0h-473v10h15q23 0 33 2t17 12.5t7 32.5v562q0 39 -35 39h-37v10h431v-111h-10q-6 53 -27.5 77t-77.5 24h-174v-318h154q34 0 40 11t6 74h10v-162h-10v67h-157q-17 0 -30 -8.5t-13 -26.5v-285h212q64 0 84 20t26 77h9v-107zM410 699l-8 -4l-121 79h-7l-123 -79l-8 4 l131 111h7z" />
<glyph unicode="&#xcb;" horiz-adv-x="536" d="M511 0h-473v10h15q23 0 33 2t17 12.5t7 32.5v562q0 39 -35 39h-37v10h431v-111h-10q-6 53 -27.5 77t-77.5 24h-174v-318h154q34 0 40 11t6 74h10v-162h-10v67h-157q-17 0 -30 -8.5t-13 -26.5v-285h212q64 0 84 20t26 77h9v-107zM459 726q0 -14 -9.5 -23.5t-22.5 -9.5 t-23 9.5t-10 23.5q0 13 9.5 22.5t23.5 9.5q13 0 22.5 -9t9.5 -23zM173 726q0 -14 -9.5 -23.5t-22.5 -9.5t-23 9.5t-10 23.5q0 13 9.5 22.5t23.5 9.5q13 0 22.5 -9t9.5 -23z" />
<glyph unicode="&#xcc;" horiz-adv-x="290" d="M243 704l-2 -7l-191 43l-3 28l20 24zM240 0h-195v10h7q40 0 49 6t9 37v561q0 17 -1 25t-6 13.5t-16 5.5h-42v10h195v-10h-60v-648h60v-10z" />
<glyph unicode="&#xcd;" horiz-adv-x="290" d="M233 768l-3 -28l-181 -38l-2 7l168 83zM240 0h-195v10h7q40 0 49 6t9 37v561q0 17 -1 25t-6 13.5t-16 5.5h-42v10h195v-10h-60v-648h60v-10z" />
<glyph unicode="&#xce;" horiz-adv-x="290" d="M243 686l-8 -4l-87 59h-7l-93 -59l-8 4l101 91h7zM240 0h-195v10h7q40 0 49 6t9 37v561q0 17 -1 25t-6 13.5t-16 5.5h-42v10h195v-10h-60v-648h60v-10z" />
<glyph unicode="&#xcf;" horiz-adv-x="290" d="M248 736q0 -14 -9.5 -23.5t-22.5 -9.5q-14 0 -23.5 9.5t-9.5 23.5q0 13 9.5 22.5t23.5 9.5t23 -9t9 -23zM108 736q0 -14 -9.5 -23.5t-22.5 -9.5q-14 0 -23.5 9.5t-9.5 23.5q0 13 9.5 22.5t23.5 9.5t23 -9t9 -23zM240 0h-195v10h7q40 0 49 6t9 37v561q0 17 -1 25t-6 13.5 t-16 5.5h-42v10h195v-10h-60v-648h60v-10z" />
<glyph unicode="&#xd0;" horiz-adv-x="679" d="M33 313v10h77v288q0 14 -3.5 22.5t-8 13.5t-16 7.5t-19 3t-25.5 0.5h-5v10h275q46 0 92 -10.5t91.5 -35t80 -61t56 -94.5t21.5 -129q0 -163 -96 -250.5t-231 -87.5h-289v10q31 0 44 1.5t23 12t10 33.5v256h-77zM568 331q0 170 -73.5 248.5t-193.5 78.5h-121v-335h110v-10 h-110v-303h145q50 0 92 17t77 53.5t54.5 100.5t19.5 150z" />
<glyph unicode="&#xd1;" horiz-adv-x="665" d="M632 658h-67v-673h-3l-448 660v-635h88v-10h-172v10h15q18 0 27 1.5t18 5.5t12 13t3 25v544q0 39 -14.5 49t-51.5 10h-15v10h161l370 -545v506q0 18 -8 23.5t-44 5.5h-23v10h152v-10zM493 772q-9 -31 -34.5 -48.5t-54.5 -17.5q-22 0 -65.5 21.5t-65.5 21.5q-39 0 -65 -35 h-9q39 62 108 62q23 0 63.5 -20t64.5 -20q20 0 31 8t19 28h8z" />
<glyph unicode="&#xd2;" horiz-adv-x="740" d="M265 732l-3 28l20 24l181 -83l-3 -7zM710 345q0 -81 -32.5 -150t-83.5 -113.5t-112 -69t-121 -24.5q-59 0 -116.5 23.5t-106 66t-78.5 111t-30 149.5q0 103 54 183t131 118.5t158 38.5q140 0 238.5 -95t98.5 -238zM630 344q0 144 -74 233.5t-182 89.5 q-111 0 -187.5 -95.5t-76.5 -235.5q0 -162 71.5 -249t191.5 -87q105 0 181 96t76 248z" />
<glyph unicode="&#xd3;" horiz-adv-x="740" d="M463 760l-3 -28l-195 -38l-3 7l181 83zM710 345q0 -81 -32.5 -150t-83.5 -113.5t-112 -69t-121 -24.5q-59 0 -116.5 23.5t-106 66t-78.5 111t-30 149.5q0 103 54 183t131 118.5t158 38.5q140 0 238.5 -95t98.5 -238zM630 344q0 144 -74 233.5t-182 89.5 q-111 0 -187.5 -95.5t-76.5 -235.5q0 -162 71.5 -249t191.5 -87q105 0 181 96t76 248z" />
<glyph unicode="&#xd4;" horiz-adv-x="740" d="M538 689l-8 -4l-151 69h-7l-153 -69l-8 4l161 101h7zM710 345q0 -81 -32.5 -150t-83.5 -113.5t-112 -69t-121 -24.5q-59 0 -116.5 23.5t-106 66t-78.5 111t-30 149.5q0 103 54 183t131 118.5t158 38.5q140 0 238.5 -95t98.5 -238zM630 344q0 144 -74 233.5t-182 89.5 q-111 0 -187.5 -95.5t-76.5 -235.5q0 -162 71.5 -249t191.5 -87q105 0 181 96t76 248z" />
<glyph unicode="&#xd5;" horiz-adv-x="740" d="M710 345q0 -81 -32.5 -150t-83.5 -113.5t-112 -69t-121 -24.5q-59 0 -116.5 23.5t-106 66t-78.5 111t-30 149.5q0 103 54 183t131 118.5t158 38.5q140 0 238.5 -95t98.5 -238zM630 344q0 144 -74 233.5t-182 89.5q-111 0 -187.5 -95.5t-76.5 -235.5q0 -162 71.5 -249 t191.5 -87q105 0 181 96t76 248zM509 772q-9 -31 -34.5 -48.5t-54.5 -17.5q-22 0 -65.5 21.5t-65.5 21.5q-39 0 -65 -35h-9q39 62 108 62q23 0 63.5 -20t64.5 -20q20 0 31 8t19 28h8z" />
<glyph unicode="&#xd6;" horiz-adv-x="740" d="M629 686q0 -14 -9.5 -23.5t-22.5 -9.5t-23 9.5t-10 23.5q0 13 9.5 22.5t23.5 9.5q13 0 22.5 -9t9.5 -23zM189 686q0 -14 -9.5 -23.5t-22.5 -9.5t-23 9.5t-10 23.5q0 13 9.5 22.5t23.5 9.5q13 0 22.5 -9t9.5 -23zM710 345q0 -81 -32.5 -150t-83.5 -113.5t-112 -69 t-121 -24.5q-59 0 -116.5 23.5t-106 66t-78.5 111t-30 149.5q0 103 54 183t131 118.5t158 38.5q140 0 238.5 -95t98.5 -238zM630 344q0 144 -74 233.5t-182 89.5q-111 0 -187.5 -95.5t-76.5 -235.5q0 -162 71.5 -249t191.5 -87q105 0 181 96t76 248z" />
<glyph unicode="&#xd7;" horiz-adv-x="443" d="M393 152l-35 -36l-140 141l-133 -133l-35 35l133 133l-131 131l35 35l131 -131l131 131l35 -35l-131 -131z" />
<glyph unicode="&#xd8;" horiz-adv-x="740" d="M710 345q0 -81 -32.5 -150t-83.5 -113.5t-112 -69t-121 -24.5q-84 0 -164 46l-65 -116l-9 4l65 117q-71 46 -114.5 122t-43.5 177q0 103 54 183t131 118.5t158 38.5q78 0 151 -35l70 125l9 -4l-70 -125q81 -42 129 -119.5t48 -174.5zM630 344q0 88 -29.5 158t-81.5 112 l-309 -557q64 -57 163 -57q105 0 181 96t76 248zM110 336q0 -183 92 -272l309 556q-63 47 -137 47q-111 0 -187.5 -95.5t-76.5 -235.5z" />
<glyph unicode="&#xd9;" horiz-adv-x="696" d="M443 661l-3 -7l-195 98l-3 28l20 24zM682 658h-73v-327q0 -157 -62.5 -249t-169.5 -92q-46 0 -91.5 14.5t-88.5 45t-70 86.5t-27 130v340q0 32 -12.5 42t-45.5 10h-25v10h253v-10h-100v-348q0 -310 207 -310q38 0 74 16t71 51t56 100.5t21 152.5v295q0 28 -16.5 35.5 t-61.5 7.5h-29v10h190v-10z" />
<glyph unicode="&#xda;" horiz-adv-x="696" d="M513 780l-3 -28l-195 -98l-3 7l181 143zM682 658h-73v-327q0 -157 -62.5 -249t-169.5 -92q-46 0 -91.5 14.5t-88.5 45t-70 86.5t-27 130v340q0 32 -12.5 42t-45.5 10h-25v10h253v-10h-100v-348q0 -310 207 -310q38 0 74 16t71 51t56 100.5t21 152.5v295q0 28 -16.5 35.5 t-61.5 7.5h-29v10h190v-10z" />
<glyph unicode="&#xdb;" horiz-adv-x="696" d="M538 689l-8 -4l-151 69h-7l-153 -69l-8 4l161 101h7zM682 658h-73v-327q0 -157 -62.5 -249t-169.5 -92q-46 0 -91.5 14.5t-88.5 45t-70 86.5t-27 130v340q0 32 -12.5 42t-45.5 10h-25v10h253v-10h-100v-348q0 -310 207 -310q38 0 74 16t71 51t56 100.5t21 152.5v295 q0 28 -16.5 35.5t-61.5 7.5h-29v10h190v-10z" />
<glyph unicode="&#xdc;" horiz-adv-x="696" d="M624 743q0 -14 -9.5 -23.5t-22.5 -9.5q-14 0 -23.5 10t-9.5 23t9.5 22.5t23.5 9.5t23 -9.5t9 -22.5zM170 743q0 -14 -9.5 -23.5t-22.5 -9.5q-14 0 -23.5 10t-9.5 23t9.5 22.5t23.5 9.5t23 -9.5t9 -22.5zM682 658h-73v-327q0 -157 -62.5 -249t-169.5 -92q-46 0 -91.5 14.5 t-88.5 45t-70 86.5t-27 130v340q0 32 -12.5 42t-45.5 10h-25v10h253v-10h-100v-348q0 -310 207 -310q38 0 74 16t71 51t56 100.5t21 152.5v295q0 28 -16.5 35.5t-61.5 7.5h-29v10h190v-10z" />
<glyph unicode="&#xdd;" horiz-adv-x="481" d="M509 658q-47 0 -60.5 -10t-35.5 -56l-130 -278v-304h78v-10h-228v10h40q40 0 40 37v254l-136 268q-6 11 -13.5 27.5t-11 22.5t-9 15.5t-9 12t-10.5 6.5t-15 4.5t-19 0.5h-12v10h203v-10h-68l162 -341l161 341h-89v10h162v-10zM423 780l-3 -28l-195 -98l-3 7l181 143z" />
<glyph unicode="&#xde;" horiz-adv-x="519" d="M497 366q0 -66 -36.5 -118t-86.5 -76.5t-99 -24.5q-54 0 -94 14v-151h73v-10h-212v10h31q22 2 30 10t8 36v520q0 51 -18 66.5t-63 15.5v10h218v-10h-67v-100h84q112 0 172 -55.5t60 -136.5zM420 367q0 90 -47.5 135.5t-124.5 45.5h-67v-377q28 -13 68 -13q79 0 125 59.5 t46 149.5z" />
<glyph unicode="&#xdf;" horiz-adv-x="479" d="M457 96q0 -55 -38.5 -80.5t-88.5 -25.5q-22 0 -50.5 6t-46.5 12l-18 5v83h10q4 -97 103 -97q35 0 58 21.5t23 51.5q0 13 -5 24.5t-17 22.5t-19.5 17t-26 17.5t-24.5 15.5q-25 17 -39 27.5t-30 32.5t-16 43q0 49 27 79q33 35 66 77q48 61 48 145q0 61 -34 87t-82 26 q-28 0 -58 -14q-74 -32 -74 -181v-481h61v-10h-172v10h33q12 0 15 4t3 20v420q0 113 74 187q22 22 57.5 37t66.5 15q54 0 87.5 -31t33.5 -85q0 -91 -56 -161q-4 -5 -26 -29.5t-30 -35.5q-14 -18 -14 -36q0 -7 4 -14.5t12.5 -16.5t16.5 -16t21 -16.5t21 -14.5t21.5 -14.5 t17.5 -11.5q31 -21 45 -32t27 -33t13 -50z" />
<glyph unicode="&#xe0;" horiz-adv-x="351" d="M347 9q-20 -19 -64 -19q-29 0 -42 13.5t-18 43.5q-27 -21 -39 -29t-35.5 -17.5t-46.5 -9.5q-30 0 -52 23.5t-22 53.5q0 22 10.5 40.5t24.5 29.5t39 20.5t41.5 13.5t45 10.5t37.5 8.5q2 56 2 84q0 35 -24 55.5t-59 20.5q-22 0 -47.5 -9t-35.5 -24q2 -2 7.5 -6.5t8 -7.5 t6.5 -7.5t5.5 -9t1.5 -9.5q0 -13 -9 -22t-22 -9q-11 0 -20.5 8.5t-9.5 19.5q0 12 7 24q18 34 55 57t75 23q60 0 88.5 -27t28.5 -88q0 -28 -3.5 -86t-3.5 -86v-5q-1 -82 38 -82q13 0 29 9zM226 182q-9 -2 -30.5 -6.5t-33.5 -7t-29.5 -10t-27 -16t-17 -23t-7.5 -33.5 q0 -31 18.5 -48t49.5 -17q28 0 74 34q0 21 1.5 63.5t1.5 63.5zM183 436l-7 -2l-97 174l20 20h31z" />
<glyph unicode="&#xe1;" horiz-adv-x="351" d="M347 9q-20 -19 -64 -19q-29 0 -42 13.5t-18 43.5q-27 -21 -39 -29t-35.5 -17.5t-46.5 -9.5q-30 0 -52 23.5t-22 53.5q0 22 10.5 40.5t24.5 29.5t39 20.5t41.5 13.5t45 10.5t37.5 8.5q2 56 2 84q0 35 -24 55.5t-59 20.5q-22 0 -47.5 -9t-35.5 -24q2 -2 7.5 -6.5t8 -7.5 t6.5 -7.5t5.5 -9t1.5 -9.5q0 -13 -9 -22t-22 -9q-11 0 -20.5 8.5t-9.5 19.5q0 12 7 24q18 34 55 57t75 23q60 0 88.5 -27t28.5 -88q0 -28 -3.5 -86t-3.5 -86v-5q-1 -82 38 -82q13 0 29 9zM226 182q-9 -2 -30.5 -6.5t-33.5 -7t-29.5 -10t-27 -16t-17 -23t-7.5 -33.5 q0 -31 18.5 -48t49.5 -17q28 0 74 34q0 21 1.5 63.5t1.5 63.5zM156 434l-7 2l53 192h31l20 -20z" />
<glyph unicode="&#xe2;" horiz-adv-x="351" d="M347 9q-20 -19 -64 -19q-29 0 -42 13.5t-18 43.5q-27 -21 -39 -29t-35.5 -17.5t-46.5 -9.5q-30 0 -52 23.5t-22 53.5q0 22 10.5 40.5t24.5 29.5t39 20.5t41.5 13.5t45 10.5t37.5 8.5q2 56 2 84q0 35 -24 55.5t-59 20.5q-22 0 -47.5 -9t-35.5 -24q2 -2 7.5 -6.5t8 -7.5 t6.5 -7.5t5.5 -9t1.5 -9.5q0 -13 -9 -22t-22 -9q-11 0 -20.5 8.5t-9.5 19.5q0 12 7 24q18 34 55 57t75 23q60 0 88.5 -27t28.5 -88q0 -28 -3.5 -86t-3.5 -86v-5q-1 -82 38 -82q13 0 29 9zM226 182q-9 -2 -30.5 -6.5t-33.5 -7t-29.5 -10t-27 -16t-17 -23t-7.5 -33.5 q0 -31 18.5 -48t49.5 -17q28 0 74 34q0 21 1.5 63.5t1.5 63.5zM257 434l-8 -4l-81 109h-7l-83 -109l-8 4l89 151h11z" />
<glyph unicode="&#xe3;" horiz-adv-x="351" d="M347 9q-20 -19 -64 -19q-29 0 -42 13.5t-18 43.5q-27 -21 -39 -29t-35.5 -17.5t-46.5 -9.5q-30 0 -52 23.5t-22 53.5q0 22 10.5 40.5t24.5 29.5t39 20.5t41.5 13.5t45 10.5t37.5 8.5q2 56 2 84q0 35 -24 55.5t-59 20.5q-22 0 -47.5 -9t-35.5 -24q2 -2 7.5 -6.5t8 -7.5 t6.5 -7.5t5.5 -9t1.5 -9.5q0 -13 -9 -22t-22 -9q-11 0 -20.5 8.5t-9.5 19.5q0 12 7 24q18 34 55 57t75 23q60 0 88.5 -27t28.5 -88q0 -28 -3.5 -86t-3.5 -86v-5q-1 -82 38 -82q13 0 29 9zM226 182q-9 -2 -30.5 -6.5t-33.5 -7t-29.5 -10t-27 -16t-17 -23t-7.5 -33.5 q0 -31 18.5 -48t49.5 -17q28 0 74 34q0 21 1.5 63.5t1.5 63.5zM286 507q-7 -31 -25.5 -48.5t-39.5 -17.5q-16 0 -47.5 21.5t-47.5 21.5q-28 0 -47 -35h-6q28 62 78 62q16 0 46 -20t47 -20q14 0 22 8t14 28h6z" />
<glyph unicode="&#xe4;" horiz-adv-x="351" d="M347 9q-20 -19 -64 -19q-29 0 -42 13.5t-18 43.5q-27 -21 -39 -29t-35.5 -17.5t-46.5 -9.5q-30 0 -52 23.5t-22 53.5q0 22 10.5 40.5t24.5 29.5t39 20.5t41.5 13.5t45 10.5t37.5 8.5q2 56 2 84q0 35 -24 55.5t-59 20.5q-22 0 -47.5 -9t-35.5 -24q2 -2 7.5 -6.5t8 -7.5 t6.5 -7.5t5.5 -9t1.5 -9.5q0 -13 -9 -22t-22 -9q-11 0 -20.5 8.5t-9.5 19.5q0 12 7 24q18 34 55 57t75 23q60 0 88.5 -27t28.5 -88q0 -28 -3.5 -86t-3.5 -86v-5q-1 -82 38 -82q13 0 29 9zM226 182q-9 -2 -30.5 -6.5t-33.5 -7t-29.5 -10t-27 -16t-17 -23t-7.5 -33.5 q0 -31 18.5 -48t49.5 -17q28 0 74 34q0 21 1.5 63.5t1.5 63.5zM287 466q0 -14 -9.5 -23.5t-22.5 -9.5t-23 9.5t-10 23.5q0 13 9.5 22.5t23.5 9.5q13 0 22.5 -9t9.5 -23zM117 466q0 -14 -9.5 -23.5t-22.5 -9.5t-23 9.5t-10 23.5q0 13 9.5 22.5t23.5 9.5q13 0 22.5 -9t9.5 -23 z" />
<glyph unicode="&#xe5;" horiz-adv-x="351" d="M347 9q-20 -19 -64 -19q-29 0 -42 13.5t-18 43.5q-27 -21 -39 -29t-35.5 -17.5t-46.5 -9.5q-30 0 -52 23.5t-22 53.5q0 22 10.5 40.5t24.5 29.5t39 20.5t41.5 13.5t45 10.5t37.5 8.5q2 56 2 84q0 35 -24 55.5t-59 20.5q-22 0 -47.5 -9t-35.5 -24q2 -2 7.5 -6.5t8 -7.5 t6.5 -7.5t5.5 -9t1.5 -9.5q0 -13 -9 -22t-22 -9q-11 0 -20.5 8.5t-9.5 19.5q0 12 7 24q18 34 55 57t75 23q60 0 88.5 -27t28.5 -88q0 -28 -3.5 -86t-3.5 -86v-5q-1 -82 38 -82q13 0 29 9zM226 182q-9 -2 -30.5 -6.5t-33.5 -7t-29.5 -10t-27 -16t-17 -23t-7.5 -33.5 q0 -31 18.5 -48t49.5 -17q28 0 74 34q0 21 1.5 63.5t1.5 63.5zM231 502q0 -27 -19.5 -46.5t-46.5 -19.5t-46.5 19.5t-19.5 46.5t19.5 46.5t46.5 19.5t46.5 -19.5t19.5 -46.5zM218 502q0 22 -15.5 37.5t-37.5 15.5t-37.5 -15.5t-15.5 -37.5t15.5 -37.5t37.5 -15.5t37.5 15.5 t15.5 37.5z" />
<glyph unicode="&#xe6;" horiz-adv-x="573" d="M553 225h-263v-16q0 -78 38 -139t99 -61q65 0 114 69l7 -5q-22 -37 -59.5 -60t-76.5 -23q-104 0 -153 77q-12 -13 -33 -29q-35 -26 -62 -36.5t-62 -10.5q-32 0 -53 24.5t-21 52.5q0 43 38 71q27 21 97 39q6 2 31.5 7t31.5 6q2 68 2 84q0 41 -27 58.5t-56 17.5 q-23 0 -48.5 -9t-34.5 -24q1 -1 7.5 -6.5t10.5 -9.5t7.5 -10.5t3.5 -13.5q0 -13 -9 -22t-22 -9t-21.5 9t-8.5 19t7 24q21 38 58 59.5t74 21.5q81 0 107 -56q49 57 128 57q55 0 87.5 -24.5t45.5 -57.5q16 -40 16 -74zM496 235q-6 65 -29.5 101t-61.5 36q-62 -1 -87.5 -36.5 t-27.5 -100.5h206zM254 73q-28 49 -28 109q-2 -1 -14 -3t-26 -5t-25 -6q-42 -12 -61 -29t-19 -53q0 -31 20 -48t50 -17q25 0 54.5 14.5t48.5 37.5z" />
<glyph unicode="&#xe7;" horiz-adv-x="359" d="M345 72q-13 -24 -49.5 -52.5t-82.5 -31.5q-18 -25 -18 -45q0 -11 30.5 -43.5t30.5 -49.5q0 -22 -17.5 -35.5t-39.5 -13.5q-31 0 -56 34l6 5q14 -15 42 -15q36 0 36 35q0 14 -22.5 43t-22.5 41q0 19 19 44q-72 2 -125 56t-53 143q0 82 59 138.5t137 56.5q47 0 85.5 -19 t38.5 -44q0 -14 -9.5 -24.5t-23.5 -10.5q-13 0 -22 9t-9 22q0 19 17 31q-29 28 -76 28q-52 0 -91 -48.5t-39 -116.5q0 -88 42.5 -144.5t97.5 -56.5q32 0 61 21.5t46 47.5z" />
<glyph unicode="&#xe8;" horiz-adv-x="369" d="M349 225h-263v-16q0 -44 13.5 -87.5t46.5 -78t78 -34.5q66 0 113 69l7 -5q-21 -36 -58.5 -59.5t-77.5 -23.5q-86 0 -135.5 55t-49.5 143q0 80 49 136.5t128 56.5q46 0 81.5 -20.5t51.5 -61.5q16 -38 16 -74zM292 235q-13 137 -91 137q-62 0 -87 -36t-28 -101h206z M206 436l-7 -2l-97 174l20 20h31z" />
<glyph unicode="&#xe9;" horiz-adv-x="369" d="M349 225h-263v-16q0 -44 13.5 -87.5t46.5 -78t78 -34.5q66 0 113 69l7 -5q-21 -36 -58.5 -59.5t-77.5 -23.5q-86 0 -135.5 55t-49.5 143q0 80 49 136.5t128 56.5q46 0 81.5 -20.5t51.5 -61.5q16 -38 16 -74zM292 235q-13 137 -91 137q-62 0 -87 -36t-28 -101h206z M196 434l-7 2l53 192h31l20 -20z" />
<glyph unicode="&#xea;" horiz-adv-x="369" d="M349 225h-263v-16q0 -44 13.5 -87.5t46.5 -78t78 -34.5q66 0 113 69l7 -5q-21 -36 -58.5 -59.5t-77.5 -23.5q-86 0 -135.5 55t-49.5 143q0 80 49 136.5t128 56.5q46 0 81.5 -20.5t51.5 -61.5q16 -38 16 -74zM292 235q-13 137 -91 137q-62 0 -87 -36t-28 -101h206z M278 429l-8 -4l-81 109h-7l-83 -109l-8 4l89 151h11z" />
<glyph unicode="&#xeb;" horiz-adv-x="369" d="M349 225h-263v-16q0 -44 13.5 -87.5t46.5 -78t78 -34.5q66 0 113 69l7 -5q-21 -36 -58.5 -59.5t-77.5 -23.5q-86 0 -135.5 55t-49.5 143q0 80 49 136.5t128 56.5q46 0 81.5 -20.5t51.5 -61.5q16 -38 16 -74zM292 235q-13 137 -91 137q-62 0 -87 -36t-28 -101h206z M308 466q0 -14 -9.5 -23.5t-22.5 -9.5q-14 0 -23.5 9.5t-9.5 23.5q0 13 9.5 22.5t23.5 9.5t23 -9t9 -23zM138 466q0 -14 -9.5 -23.5t-22.5 -9.5q-14 0 -23.5 9.5t-9.5 23.5q0 13 9.5 22.5t23.5 9.5t23 -9t9 -23z" />
<glyph unicode="&#xec;" horiz-adv-x="197" d="M121 436l-7 -2l-97 174l20 20h31zM175 0h-152v10h25q14 0 18.5 5t4.5 23v279q0 17 -0.5 24t-6.5 13.5t-19 6.5h-22v10h108v-361h44v-10z" />
<glyph unicode="&#xed;" horiz-adv-x="197" d="M73 434l-7 2l53 192h31l20 -20zM175 0h-152v10h25q14 0 18.5 5t4.5 23v279q0 17 -0.5 24t-6.5 13.5t-19 6.5h-22v10h108v-361h44v-10z" />
<glyph unicode="&#xee;" horiz-adv-x="197" d="M175 0h-152v10h25q14 0 18.5 5t4.5 23v279q0 17 -0.5 24t-6.5 13.5t-19 6.5h-22v10h108v-361h44v-10zM186 434l-8 -4l-81 109h-7l-83 -109l-8 4l89 151h11z" />
<glyph unicode="&#xef;" horiz-adv-x="197" d="M171 466q0 -14 -9.5 -23.5t-22.5 -9.5t-23 9.5t-10 23.5q0 13 9.5 22.5t23.5 9.5q13 0 22.5 -9t9.5 -23zM72 466q0 -14 -9.5 -23.5t-22.5 -9.5q-14 0 -23.5 9.5t-9.5 23.5q0 13 9.5 22.5t23.5 9.5t23 -9t9 -23zM175 0h-152v10h25q14 0 18.5 5t4.5 23v279q0 17 -0.5 24 t-6.5 13.5t-19 6.5h-22v10h108v-361h44v-10z" />
<glyph unicode="&#xf0;" d="M337 655l-99 -59q76 -73 123.5 -175.5t47.5 -215.5q0 -96 -56 -156.5t-146 -60.5q-77 0 -130.5 55.5t-53.5 138.5q0 78 58.5 139.5t132.5 61.5t115 -71q-22 155 -116 270l-105 -63l-5 7l105 62q-47 56 -111 94l4 6q66 -25 131 -86l100 59zM344 187q0 82 -37 134.5 t-94 52.5q-60 0 -92 -57t-32 -130q0 -83 38 -136.5t84 -53.5q38 0 65.5 17t41.5 46t20 60t6 67z" />
<glyph unicode="&#xf1;" horiz-adv-x="438" d="M421 0h-162v10h35q13 0 16.5 4.5t3.5 23.5v185q0 30 -0.5 46t-4.5 35.5t-11.5 28.5t-21 15.5t-34.5 6.5q-47 0 -112 -55v-290h42v-10h-150v10h22q17 0 21.5 4.5t4.5 19.5v284q0 25 -4 34t-23 9h-21v10h108v-61q22 22 63 47.5t73 25.5q64 0 86 -33t22 -105v-235h47v-10z M341 567q-7 -31 -25.5 -48.5t-39.5 -17.5q-16 0 -47.5 21.5t-47.5 21.5q-28 0 -47 -35h-6q28 62 78 62q16 0 46 -20t47 -20q14 0 22 8t14 28h6z" />
<glyph unicode="&#xf2;" d="M409 185q0 -76 -57.5 -136.5t-144.5 -60.5q-77 0 -130.5 55.5t-53.5 138.5q0 78 58.5 139.5t132.5 61.5q93 0 144 -58t51 -140zM344 187q0 82 -37 134.5t-94 52.5q-60 0 -92 -57t-32 -130q0 -83 38 -136.5t84 -53.5q38 0 65.5 17t41.5 46t20 60t6 67zM242 436l-7 -2 l-97 174l20 20h31z" />
<glyph unicode="&#xf3;" d="M409 185q0 -76 -57.5 -136.5t-144.5 -60.5q-77 0 -130.5 55.5t-53.5 138.5q0 78 58.5 139.5t132.5 61.5q93 0 144 -58t51 -140zM344 187q0 82 -37 134.5t-94 52.5q-60 0 -92 -57t-32 -130q0 -83 38 -136.5t84 -53.5q38 0 65.5 17t41.5 46t20 60t6 67zM235 434l-7 2 l53 192h31l20 -20z" />
<glyph unicode="&#xf4;" d="M409 185q0 -76 -57.5 -136.5t-144.5 -60.5q-77 0 -130.5 55.5t-53.5 138.5q0 78 58.5 139.5t132.5 61.5q93 0 144 -58t51 -140zM344 187q0 82 -37 134.5t-94 52.5q-60 0 -92 -57t-32 -130q0 -83 38 -136.5t84 -53.5q38 0 65.5 17t41.5 46t20 60t6 67zM326 434l-8 -4 l-81 109h-7l-83 -109l-8 4l89 151h11z" />
<glyph unicode="&#xf5;" d="M409 185q0 -76 -57.5 -136.5t-144.5 -60.5q-77 0 -130.5 55.5t-53.5 138.5q0 78 58.5 139.5t132.5 61.5q93 0 144 -58t51 -140zM344 187q0 82 -37 134.5t-94 52.5q-60 0 -92 -57t-32 -130q0 -83 38 -136.5t84 -53.5q38 0 65.5 17t41.5 46t20 60t6 67zM334 507 q-7 -31 -25.5 -48.5t-39.5 -17.5q-16 0 -47.5 21.5t-47.5 21.5q-28 0 -47 -35h-6q28 62 78 62q16 0 46 -20t47 -20q14 0 22 8t14 28h6z" />
<glyph unicode="&#xf6;" d="M409 185q0 -76 -57.5 -136.5t-144.5 -60.5q-77 0 -130.5 55.5t-53.5 138.5q0 78 58.5 139.5t132.5 61.5q93 0 144 -58t51 -140zM344 187q0 82 -37 134.5t-94 52.5q-60 0 -92 -57t-32 -130q0 -83 38 -136.5t84 -53.5q38 0 65.5 17t41.5 46t20 60t6 67zM347 466 q0 -14 -9.5 -23.5t-22.5 -9.5t-23 9.5t-10 23.5q0 13 9.5 22.5t23.5 9.5q13 0 22.5 -9t9.5 -23zM177 466q0 -14 -9.5 -23.5t-22.5 -9.5t-23 9.5t-10 23.5q0 13 9.5 22.5t23.5 9.5q13 0 22.5 -9t9.5 -23z" />
<glyph unicode="&#xf7;" horiz-adv-x="495" d="M291 434q0 -18 -12 -30t-29 -12t-28.5 12t-11.5 30q0 17 12 30t28 13q17 0 29 -13t12 -30zM460 269h-425v50h425v-50zM291 143q0 -18 -12 -30t-29 -12t-28.5 12t-11.5 30t11.5 30t28.5 12t29 -12t12 -30z" />
<glyph unicode="&#xf8;" d="M409 185q0 -76 -57.5 -136.5t-144.5 -60.5q-38 0 -75 16l-48 -86l-9 4l48 86q-45 24 -72.5 70t-27.5 104q0 78 58.5 139.5t132.5 61.5q61 0 105 -27l66 116l9 -4l-66 -118q39 -26 60 -70.5t21 -94.5zM89 187q0 -96 49 -152l165 292q-37 47 -90 47q-60 0 -92 -57t-32 -130 zM344 187q0 79 -35 131l-163 -291q32 -30 65 -30q38 0 65.5 17t41.5 46t20 60t6 67z" />
<glyph unicode="&#xf9;" horiz-adv-x="424" d="M400 0h-105v61q-28 -23 -43.5 -34t-44 -24t-52.5 -13q-91 0 -91 147v183q0 28 -4.5 34.5t-21.5 6.5h-22v10h108v-238q0 -22 1.5 -37t7 -34.5t19 -29.5t34.5 -10q60 0 109 51v262q0 18 -5.5 22t-26.5 4h-22v10h114v-323q0 -26 7 -32t29 -6h9v-10zM219 436l-7 -2l-97 174 l20 20h31z" />
<glyph unicode="&#xfa;" horiz-adv-x="424" d="M400 0h-105v61q-28 -23 -43.5 -34t-44 -24t-52.5 -13q-91 0 -91 147v183q0 28 -4.5 34.5t-21.5 6.5h-22v10h108v-238q0 -22 1.5 -37t7 -34.5t19 -29.5t34.5 -10q60 0 109 51v262q0 18 -5.5 22t-26.5 4h-22v10h114v-323q0 -26 7 -32t29 -6h9v-10zM202 434l-7 2l53 192h31 l20 -20z" />
<glyph unicode="&#xfb;" horiz-adv-x="424" d="M400 0h-105v61q-28 -23 -43.5 -34t-44 -24t-52.5 -13q-91 0 -91 147v183q0 28 -4.5 34.5t-21.5 6.5h-22v10h108v-238q0 -22 1.5 -37t7 -34.5t19 -29.5t34.5 -10q60 0 109 51v262q0 18 -5.5 22t-26.5 4h-22v10h114v-323q0 -26 7 -32t29 -6h9v-10zM287 434l-8 -4l-81 109 h-7l-83 -109l-8 4l89 151h11z" />
<glyph unicode="&#xfc;" horiz-adv-x="424" d="M400 0h-105v61q-28 -23 -43.5 -34t-44 -24t-52.5 -13q-91 0 -91 147v183q0 28 -4.5 34.5t-21.5 6.5h-22v10h108v-238q0 -22 1.5 -37t7 -34.5t19 -29.5t34.5 -10q60 0 109 51v262q0 18 -5.5 22t-26.5 4h-22v10h114v-323q0 -26 7 -32t29 -6h9v-10zM343 466 q0 -14 -9.5 -23.5t-22.5 -9.5t-23 9.5t-10 23.5q0 13 9.5 22.5t23.5 9.5q13 0 22.5 -9t9.5 -23zM113 466q0 -14 -9.5 -23.5t-22.5 -9.5t-23 9.5t-10 23.5q0 13 9.5 22.5t23.5 9.5q13 0 22.5 -9t9.5 -23z" />
<glyph unicode="&#xfd;" horiz-adv-x="366" d="M377 361h-23q-4 0 -6.5 -0.5t-5 -0.5t-4.5 -1.5t-3.5 -2.5t-3.5 -4l-3 -4.5t-2.5 -6t-3 -7t-3.5 -9t-4 -10.5l-215 -557q-10 -27 -24 -44q-15 -18 -32 -18q-15 0 -23 10t-8 23t9 23.5t23 10.5q11 0 19 -8.5t8 -19.5q10 6 15 21l92 234l-129 325q-1 4 -4 11.5l-4 10 t-3.5 8t-5 7.5t-5.5 4.5t-7 3.5t-9 1h-29v10h177v-10h-58l107 -294l112 294h-53v10h109v-10zM216 434l-7 2l53 192h31l20 -20z" />
<glyph unicode="&#xfe;" horiz-adv-x="443" d="M420 201q0 -86 -49.5 -147.5t-128.5 -61.5q-58 0 -116 46v-332h64v-10h-172v10h22q16 0 21 3.5t5 20.5v916q0 13 -4 17.5t-17 4.5h-27v10h108v-351q78 58 129 58q85 0 125 -54.5t40 -129.5zM353 177q0 48 -10 88t-38 70t-72 30q-51 0 -107 -50v-267q47 -43 99 -43 q35 0 61.5 17t40 44.5t20 55t6.5 55.5z" />
<glyph unicode="&#xff;" horiz-adv-x="366" d="M361 466q0 -14 -9.5 -23.5t-22.5 -9.5t-23 9.5t-10 23.5q0 13 9.5 22.5t23.5 9.5q13 0 22.5 -9t9.5 -23zM101 466q0 -14 -9.5 -23.5t-22.5 -9.5t-23 9.5t-10 23.5q0 13 9.5 22.5t23.5 9.5q13 0 22.5 -9t9.5 -23zM377 361h-23q-4 0 -6.5 -0.5t-5 -0.5t-4.5 -1.5t-3.5 -2.5 t-3.5 -4l-3 -4.5t-2.5 -6t-3 -7t-3.5 -9t-4 -10.5l-215 -557q-10 -27 -24 -44q-15 -18 -32 -18q-15 0 -23 10t-8 23t9 23.5t23 10.5q11 0 19 -8.5t8 -19.5q10 6 15 21l92 234l-129 325q-1 4 -4 11.5l-4 10t-3.5 8t-5 7.5t-5.5 4.5t-7 3.5t-9 1h-29v10h177v-10h-58l107 -294 l112 294h-53v10h109v-10z" />
<glyph unicode="&#x152;" horiz-adv-x="788" d="M763 0h-316q-42 -12 -85 -12q-80 0 -155.5 40.5t-126 122.5t-49.5 187q1 104 55 184t130 118t158 38q45 0 84 -10h263v-111h-10q-6 53 -27.5 77t-77.5 24h-115q99 -35 160.5 -121t59.5 -198q-2 -119 -68.5 -205.5t-164.5 -123.5h166q64 0 84 20t26 77h9v-107zM631 340v9 q0 122 -56 205.5t-143 105.5v-320h199zM631 330h-156q-17 0 -30 -8.5t-13 -26.5v-285h5q81 27 136.5 113.5t57.5 206.5zM362 0v667q-106 -6 -180.5 -103.5t-70.5 -239.5q4 -151 71 -235t180 -89z" />
<glyph unicode="&#x153;" horiz-adv-x="692" d="M672 225h-263v-7q0 -47 11.5 -91.5t43 -81t78.5 -36.5q31 0 56.5 13t36.5 24.5t25 31.5l7 -5q-22 -37 -59.5 -60t-76.5 -23q-109 0 -158 85q-26 -40 -70 -63.5t-97 -23.5q-75 0 -129 56t-54 139q0 78 58.5 139t132.5 61q108 0 163 -82q50 80 146 80q55 0 87.5 -24.5 t45.5 -57.5q16 -40 16 -74zM615 235q-6 65 -29.5 101t-61.5 36q-62 -1 -87.5 -36.5t-27.5 -100.5h206zM344 189q0 82 -37.5 133.5t-94.5 51.5q-60 0 -91.5 -58t-31.5 -131q0 -83 38 -135.5t85 -52.5q37 0 64 17t41 45.5t20.5 60.5t6.5 69z" />
<glyph unicode="&#x178;" horiz-adv-x="481" d="M509 658q-47 0 -60.5 -10t-35.5 -56l-130 -278v-304h78v-10h-228v10h40q40 0 40 37v254l-136 268q-6 11 -13.5 27.5t-11 22.5t-9 15.5t-9 12t-10.5 6.5t-15 4.5t-19 0.5h-12v10h203v-10h-68l162 -341l161 341h-89v10h162v-10zM478 743q0 -14 -9.5 -23.5t-22.5 -9.5 q-14 0 -23.5 10t-9.5 23t9.5 22.5t23.5 9.5t23 -9.5t9 -22.5zM107 743q0 -14 -9.5 -23.5t-22.5 -9.5t-23 10t-10 23t9.5 22.5t23.5 9.5q13 0 22.5 -9.5t9.5 -22.5z" />
<glyph unicode="&#x2c6;" horiz-adv-x="219" d="M204 434l-8 -4l-81 109h-7l-83 -109l-8 4l89 151h11z" />
<glyph unicode="&#x2dc;" horiz-adv-x="287" d="M251 567q-7 -31 -25.5 -48.5t-39.5 -17.5q-16 0 -47.5 21.5t-47.5 21.5q-28 0 -47 -35h-6q28 62 78 62q16 0 46 -20t47 -20q14 0 22 8t14 28h6z" />
<glyph unicode="&#x2000;" horiz-adv-x="405" />
<glyph unicode="&#x2001;" horiz-adv-x="810" />
<glyph unicode="&#x2002;" horiz-adv-x="405" />
<glyph unicode="&#x2003;" horiz-adv-x="810" />
<glyph unicode="&#x2004;" horiz-adv-x="270" />
<glyph unicode="&#x2005;" horiz-adv-x="202" />
<glyph unicode="&#x2006;" horiz-adv-x="135" />
<glyph unicode="&#x2007;" horiz-adv-x="135" />
<glyph unicode="&#x2008;" horiz-adv-x="101" />
<glyph unicode="&#x2009;" horiz-adv-x="162" />
<glyph unicode="&#x200a;" horiz-adv-x="45" />
<glyph unicode="&#x2010;" horiz-adv-x="274" d="M234 180h-194v36h194v-36z" />
<glyph unicode="&#x2011;" horiz-adv-x="274" d="M234 180h-194v36h194v-36z" />
<glyph unicode="&#x2012;" horiz-adv-x="274" d="M234 180h-194v36h194v-36z" />
<glyph unicode="&#x2013;" horiz-adv-x="533" d="M493 184h-453v31h453v-31z" />
<glyph unicode="&#x2014;" horiz-adv-x="825" d="M775 184h-725v31h725v-31z" />
<glyph unicode="&#x2018;" horiz-adv-x="132" d="M112 683q-52 -40 -65 -84q-1 -5 -1 -12q0 -9 5 -9q2 0 7.5 2.5t9.5 2.5q14 0 22 -10t8 -23q0 -14 -8.5 -25.5t-20.5 -11.5q-17 0 -28 15t-11 33q0 41 25.5 76t51.5 52z" />
<glyph unicode="&#x2019;" horiz-adv-x="132" d="M20 517q52 40 65 84q1 5 1 12q0 9 -5 9q-2 0 -7.5 -2.5t-9.5 -2.5q-14 0 -22 10t-8 23q0 14 8.5 25.5t20.5 11.5q17 0 28 -15t11 -33q0 -41 -25.5 -76t-51.5 -52z" />
<glyph unicode="&#x201a;" horiz-adv-x="142" d="M20 -108q52 40 65 84q1 5 1 12q0 9 -5 9q-2 0 -7.5 -2.5t-9.5 -2.5q-14 0 -22 10t-8 23q0 14 8.5 25.5t20.5 11.5q17 0 28 -15t11 -33q0 -41 -25.5 -76t-51.5 -52z" />
<glyph unicode="&#x201c;" horiz-adv-x="237" d="M112 683q-52 -40 -65 -84q-1 -5 -1 -12q0 -9 5 -9q2 0 7.5 2.5t9.5 2.5q14 0 22 -10t8 -23q0 -14 -8.5 -25.5t-20.5 -11.5q-17 0 -28 15t-11 33q0 41 25.5 76t51.5 52zM217 683q-52 -40 -65 -84q-1 -5 -1 -12q0 -9 5 -9q2 0 7.5 2.5t9.5 2.5q14 0 22 -10t8 -23 q0 -14 -8.5 -25.5t-20.5 -11.5q-17 0 -28 15t-11 33q0 41 25.5 76t51.5 52z" />
<glyph unicode="&#x201d;" horiz-adv-x="237" d="M125 517q52 40 65 84q1 5 1 12q0 9 -5 9q-2 0 -7.5 -2.5t-9.5 -2.5q-14 0 -22 10t-8 23q0 14 8.5 25.5t20.5 11.5q17 0 28 -15t11 -33q0 -41 -25.5 -76t-51.5 -52zM20 517q52 40 65 84q1 5 1 12q0 9 -5 9q-2 0 -7.5 -2.5t-9.5 -2.5q-14 0 -22 10t-8 23q0 14 8.5 25.5 t20.5 11.5q17 0 28 -15t11 -33q0 -41 -25.5 -76t-51.5 -52z" />
<glyph unicode="&#x201e;" horiz-adv-x="247" d="M125 -108q52 40 65 84q1 5 1 12q0 9 -5 9q-2 0 -7.5 -2.5t-9.5 -2.5q-14 0 -22 10t-8 23q0 14 8.5 25.5t20.5 11.5q17 0 28 -15t11 -33q0 -41 -25.5 -76t-51.5 -52zM20 -108q52 40 65 84q1 5 1 12q0 9 -5 9q-2 0 -7.5 -2.5t-9.5 -2.5q-14 0 -22 10t-8 23q0 14 8.5 25.5 t20.5 11.5q17 0 28 -15t11 -33q0 -41 -25.5 -76t-51.5 -52z" />
<glyph unicode="&#x2022;" horiz-adv-x="366" d="M306 340q0 -51 -36 -87t-87 -36t-87 36t-36 87t36 87t87 36t87 -36t36 -87z" />
<glyph unicode="&#x2026;" horiz-adv-x="736" d="M686 26q0 -16 -11 -27t-27 -11t-27 11t-11 27t11 27t27 11t27 -11t11 -27zM406 26q0 -16 -11 -27t-27 -11t-27 11t-11 27t11 27t27 11t27 -11t11 -27zM126 26q0 -16 -11 -27t-27 -11t-27 11t-11 27t11 27t27 11t27 -11t11 -27z" />
<glyph unicode="&#x202f;" horiz-adv-x="162" />
<glyph unicode="&#x2039;" horiz-adv-x="237" d="M192 304q-3 0 -13.5 -2.5t-26 -10.5t-30 -19t-24.5 -31t-10 -44q0 -26 9.5 -48.5t22 -35.5t27 -23t23.5 -13.5t13 -4.5v-8q-6 1 -15 4t-33 13.5t-42 24t-33 37t-15 50.5q0 30 15 53t35.5 35t44 19.5t36 9.5t16.5 2v-8z" />
<glyph unicode="&#x203a;" horiz-adv-x="237" d="M45 72q3 0 13.5 2.5t26 10.5t30 19t24.5 31t10 44q0 26 -9.5 48.5t-22 35.5t-27 23t-23.5 13.5t-13 4.5v8q6 -1 15 -4t33 -13.5t42 -24t33 -37t15 -50.5q0 -30 -15 -53t-35.5 -35t-44 -19.5t-36 -9.5t-16.5 -2v8z" />
<glyph unicode="&#x205f;" horiz-adv-x="202" />
<glyph unicode="&#x20ac;" horiz-adv-x="509" d="M410 312v-14h-266v14h266zM410 272v-14h-266v14h266zM474 119l-3 -99q-69 -30 -153 -30q-117 0 -202.5 85.5t-85.5 215.5q0 62 17.5 112t45.5 82t66 53t76.5 30t79.5 9q32 0 81 -11t68 -18q3 -79 3 -101l-8 -1q-11 71 -49 94.5t-112 23.5q-86 0 -145 -70.5t-59 -196.5 q0 -79 22.5 -144t75.5 -108.5t129 -43.5q71 0 101 27t44 92z" />
<glyph unicode="&#x2122;" horiz-adv-x="716" d="M686 325h-108v10h12q6 0 9.5 1t5.5 5t2 13v297l-108 -326h-5l-120 316h-1v-306h41v-10h-91v10h9q11 0 16.5 1t9 5.5t3.5 13.5v270q0 18 -5 21.5t-26 3.5h-7v10h86l102 -271l89 271h82v-10h-33v-315h37v-10zM313 600h-9q-3 49 -35 49h-79v-309h41v-11h-127v10h9q20 0 27 6 t7 22v244q0 25 -5 32t-20 7h-58q-33 0 -36 -47h-8l4 57h287q1 -47 2 -60z" />
</font>
</defs>
</svg>
